<?xml version="1.0" encoding="UTF-8" standalone="no"?>
<svg xmlns="http://www.w3.org/2000/svg" version="1.1" viewBox="0 0 500 500">
<path fill="#111315" d="
 M 257.02 98.73
  Q 257.48 101.30 257.15 103.53
  A 1.13 1.12 77.1 0 1 256.66 104.31
  Q 254.01 106.08 250.75 106.39
  Q 247.79 106.39 246.94 104.55
  Q 244.48 99.19 242.71 97.59
  A 3.51 3.36 8.8 0 1 241.93 96.57
  L 233.66 80.17
  A 4.73 4.48 28.8 0 1 233.21 78.77
  Q 232.91 76.83 232.63 74.25
  Q 232.40 72.07 229.86 70.70
  A 2.20 2.19 11.7 0 1 228.72 68.98
  L 227.46 55.64
  A 2.72 0.18 68.8 0 0 226.84 53.66
  Q 226.52 52.77 226.14 51.33
  Q 224.31 44.29 220.87 38.19
  Q 220.04 36.71 217.84 36.16
  C 211.84 34.65 206.77 48.88 205.92 53.00
  C 205.18 56.61 205.70 60.89 205.41 64.71
  C 205.14 68.31 206.49 75.79 211.25 76.08
  Q 217.25 76.45 222.35 73.32
  A 1.17 1.17 0.0 0 1 224.09 74.00
  C 224.88 76.76 227.79 79.41 229.23 81.19
  A 0.91 0.75 -84.3 0 1 229.35 81.37
  L 238.37 98.30
  A 3.01 2.84 28.6 0 1 238.70 99.31
  Q 239.34 104.08 237.52 107.99
  Q 233.98 108.59 225.87 109.33
  Q 222.74 109.62 220.53 112.46
  A 2.35 2.19 -16.4 0 0 220.17 113.07
  C 218.77 116.46 217.77 120.41 214.00 120.32
  Q 212.93 120.29 208.70 120.75
  Q 197.12 121.65 185.56 123.08
  C 183.40 123.35 178.57 124.46 177.71 126.80
  L 177.50 126.93
  C 175.73 131.51 178.81 133.97 183.00 133.65
  C 189.16 133.18 191.30 132.77 196.27 133.03
  Q 199.30 133.19 201.69 132.60
  A 1.15 1.15 0.0 0 1 203.11 133.83
  Q 202.86 136.32 203.62 137.09
  A 2.65 2.25 -41.9 0 0 206.96 137.00
  Q 208.29 135.89 209.70 135.16
  A 1.36 1.28 26.1 0 1 210.15 135.02
  L 219.79 133.75
  A 1.45 1.45 0.0 0 1 221.39 134.84
  Q 222.09 137.70 224.17 139.62
  A 2.74 2.71 10.9 0 1 224.87 140.64
  C 228.01 148.48 235.35 148.36 243.06 149.44
  A 20.42 20.03 45.5 0 0 247.76 149.53
  Q 250.96 149.22 254.61 149.14
  A 1.97 1.86 -1.3 0 1 256.62 150.95
  Q 256.65 152.09 257.92 153.01
  Q 259.31 155.40 261.84 154.50
  A 1.29 1.29 0.0 0 1 262.87 154.57
  C 266.72 156.60 271.18 165.30 267.56 169.05
  Q 264.23 172.49 262.90 174.93
  Q 260.64 179.02 259.84 183.50
  Q 258.15 192.94 259.16 202.48
  Q 259.06 206.99 259.45 208.38
  Q 260.22 211.08 260.58 213.84
  Q 261.14 218.12 261.29 219.07
  Q 264.71 240.59 266.17 255.48
  Q 268.36 277.77 266.91 300.68
  Q 266.73 303.55 265.13 304.52
  C 258.77 304.53 255.99 300.76 253.48 295.68
  Q 252.27 293.30 250.38 292.32
  Q 245.01 289.23 239.76 287.73
  A 1.93 1.93 0.0 0 1 238.42 285.41
  C 239.63 280.57 240.64 276.21 241.03 270.79
  Q 241.57 263.28 242.33 255.79
  C 242.72 250.48 242.77 246.02 245.50 241.23
  Q 246.02 240.31 245.40 238.09
  Q 245.63 236.46 245.02 233.89
  Q 244.66 230.16 243.43 226.83
  Q 241.12 220.58 238.55 215.32
  Q 233.33 205.17 227.82 199.44
  C 222.25 193.65 216.18 191.69 209.19 189.61
  A 12.83 12.63 -18.9 0 1 205.49 187.83
  C 196.20 181.39 184.22 174.97 173.18 173.42
  Q 171.67 173.21 159.28 172.60
  Q 152.03 172.25 140.85 169.44
  A 0.49 0.48 -15.9 0 1 140.61 169.31
  Q 140.39 169.10 140.49 169.03
  C 139.97 168.34 139.73 167.85 140.01 166.95
  Q 142.44 159.24 147.38 148.37
  Q 148.54 145.80 147.39 142.70
  Q 145.14 128.46 134.73 118.52
  Q 131.08 115.03 127.17 113.81
  Q 121.32 111.99 113.76 111.81
  Q 100.48 111.48 87.58 113.92
  Q 79.16 114.13 71.21 116.49
  Q 66.64 118.23 62.75 121.26
  Q 57.01 125.72 52.02 131.01
  Q 49.58 133.61 46.62 138.86
  Q 44.80 142.09 46.49 144.22
  Q 49.43 152.62 55.58 165.43
  Q 61.68 178.15 72.45 184.57
  L 74.64 185.90
  Q 78.94 189.43 83.46 192.57
  Q 86.49 194.68 87.68 195.82
  Q 89.64 197.69 91.62 199.57
  A 2.87 2.58 77.1 0 0 92.23 200.00
  C 95.01 201.46 94.75 204.42 95.27 207.02
  A 0.53 0.53 0.0 0 1 94.89 207.63
  Q 91.25 208.62 88.26 210.98
  Q 85.44 212.75 83.65 215.35
  Q 82.03 217.68 82.00 217.72
  C 79.43 221.06 76.45 224.33 74.63 227.90
  Q 69.43 238.09 69.84 249.71
  Q 70.03 253.85 69.17 256.73
  A 0.95 0.95 0.0 0 0 69.44 257.70
  Q 70.03 258.24 70.10 258.70
  A 0.58 0.58 0.0 0 1 69.50 259.35
  Q 68.41 259.30 67.81 259.74
  Q 64.92 259.24 64.25 261.04
  Q 61.35 264.35 62.88 268.86
  Q 64.14 272.59 66.64 273.59
  Q 69.40 281.85 69.26 291.54
  Q 65.27 296.57 61.27 301.78
  Q 60.56 302.70 59.55 305.55
  A 4.85 4.79 -35.9 0 0 59.29 307.11
  C 59.29 310.79 58.74 314.72 61.41 317.56
  A 2.28 2.25 -7.5 0 0 61.98 317.99
  C 66.17 320.17 71.86 323.94 77.86 326.89
  Q 86.79 331.28 88.82 332.68
  Q 91.68 334.65 92.14 336.36
  Q 94.34 344.46 98.92 351.26
  Q 103.99 359.72 111.94 364.81
  Q 117.09 368.12 122.86 369.01
  C 132.78 370.55 140.80 368.71 148.35 361.51
  A 3.30 3.26 83.3 0 0 148.91 360.79
  L 151.04 357.06
  A 1.10 1.09 13.0 0 1 151.91 356.52
  Q 153.98 356.37 155.56 357.19
  Q 163.66 361.42 171.94 362.06
  A 0.95 0.95 0.0 0 1 172.75 363.35
  L 168.97 373.19
  A 3.71 3.54 57.7 0 0 168.73 374.38
  C 168.42 382.88 169.07 391.19 169.45 399.66
  Q 169.70 405.09 170.99 410.94
  A 0.45 0.45 0.0 0 0 171.80 411.10
  C 173.54 408.64 174.04 406.89 173.97 403.66
  Q 173.65 390.87 174.15 379.17
  C 174.45 372.36 176.17 367.61 183.41 365.98
  A 1.80 1.78 56.4 0 1 184.86 366.28
  Q 188.63 369.00 190.19 369.34
  Q 201.84 371.87 212.45 377.50
  A 2.33 2.31 -80.3 0 1 213.66 379.22
  L 215.88 394.03
  A 3.74 3.73 79.7 0 0 220.35 397.13
  L 220.69 397.06
  A 3.77 3.76 -14.3 0 0 223.59 392.18
  Q 221.89 387.03 222.90 382.71
  A 0.68 0.67 10.9 0 1 223.67 382.20
  L 231.41 383.39
  L 243.69 388.14
  Q 255.82 393.40 263.94 396.07
  Q 274.01 399.37 284.73 402.93
  Q 289.46 404.50 292.64 402.63
  C 299.68 398.50 307.30 395.69 315.09 392.60
  Q 318.37 391.30 321.48 391.10
  A 1.41 1.41 0.0 0 1 322.98 392.38
  Q 325.19 417.42 336.27 439.44
  Q 338.65 444.18 342.37 448.11
  L 351.54 460.27
  Q 353.75 464.08 357.10 466.82
  Q 364.83 475.06 374.10 481.36
  C 380.99 486.04 387.80 488.37 395.43 490.56
  Q 397.59 491.18 402.81 491.23
  Q 416.10 491.34 426.49 486.37
  Q 437.87 480.37 444.40 470.13
  Q 448.16 464.22 450.97 457.01
  Q 453.64 450.19 454.39 442.76
  Q 455.82 428.65 453.33 414.80
  Q 450.64 395.63 442.39 378.47
  L 432.70 364.69
  L 429.73 362.24
  L 423.82 356.17
  L 419.99 351.84
  Q 418.80 350.72 415.50 348.25
  Q 411.32 345.11 413.61 342.28
  Q 420.46 340.95 424.57 338.83
  Q 428.95 336.58 426.65 332.36
  Q 421.70 323.25 412.78 313.71
  Q 402.77 303.00 398.71 299.54
  Q 391.77 293.63 384.96 287.53
  Q 384.94 287.15 384.49 286.70
  Q 384.00 285.35 384.71 282.47
  Q 385.36 279.82 386.39 270.71
  Q 387.36 257.47 384.08 244.77
  Q 380.32 232.11 375.16 220.02
  Q 375.09 219.85 374.99 219.72
  Q 373.22 214.98 370.93 210.49
  Q 370.82 210.27 370.60 210.17
  Q 370.34 210.06 370.25 209.91
  Q 366.93 204.41 364.35 198.79
  Q 361.13 192.45 356.00 185.74
  Q 347.77 174.99 338.04 166.73
  Q 336.40 164.72 333.59 163.58
  Q 327.01 158.30 319.00 157.12
  Q 317.08 156.84 309.50 156.86
  Q 308.23 156.87 307.49 155.59
  Q 306.13 152.04 308.45 149.46
  A 2.08 2.07 -77.5 0 1 309.40 148.85
  Q 313.48 147.59 318.11 147.28
  A 2.13 1.85 -48.6 0 0 318.39 147.24
  L 323.52 145.94
  A 1.39 1.03 31.7 0 1 323.88 145.91
  Q 325.07 146.02 333.43 145.67
  Q 338.53 145.45 341.06 142.28
  Q 346.95 138.07 345.90 130.62
  Q 345.28 126.16 345.23 123.74
  A 2.40 2.40 0.0 0 1 347.63 121.29
  Q 351.27 121.30 356.20 121.55
  C 358.39 121.67 359.93 123.30 362.04 122.86
  A 1.61 1.54 -30.9 0 0 362.80 120.11
  Q 362.53 119.90 362.07 119.65
  A 2.43 2.36 57.2 0 0 360.82 119.36
  Q 354.57 119.68 347.81 118.16
  A 0.78 0.77 4.6 0 1 347.21 117.46
  Q 347.18 116.92 347.53 116.23
  L 352.48 115.10
  Q 354.93 114.58 354.55 112.17
  Q 355.68 109.70 355.31 107.37
  A 1.41 1.40 -0.2 0 0 354.12 106.20
  L 351.29 105.81
  L 346.72 105.45
  A 0.85 0.85 0.0 0 1 346.00 104.93
  Q 344.87 102.31 344.87 99.01
  Q 344.88 91.62 344.68 79.38
  A 2.15 2.15 0.0 0 1 346.00 77.37
  Q 354.36 73.90 354.37 64.53
  Q 354.38 56.00 352.83 50.40
  Q 352.10 47.79 350.17 42.01
  A 4.01 3.73 38.7 0 1 349.96 40.59
  Q 350.05 38.15 349.37 35.81
  Q 348.99 30.47 346.65 24.31
  C 343.99 17.33 339.56 13.26 332.18 10.90
  Q 322.70 7.85 316.18 7.38
  Q 300.24 6.24 278.75 8.95
  Q 274.05 9.55 268.44 11.44
  Q 261.07 13.92 257.84 20.59
  C 248.94 38.96 252.03 60.15 252.56 80.00
  Q 252.65 83.27 253.36 85.59
  Q 255.38 92.20 257.02 98.73
  Z
 M 361.08 89.56
  A 0.20 0.19 73.2 0 0 361.20 89.33
  Q 360.34 86.08 358.39 83.67
  A 0.16 0.16 0.0 0 0 358.12 83.84
  L 360.59 89.60
  A 0.16 0.15 -23.4 0 0 360.80 89.68
  L 361.08 89.56
  Z"
/>
<path fill="#d2d4d8" d="
 M 349.37 35.81
  Q 349.08 39.56 346.55 40.15
  Q 346.41 40.18 346.36 40.29
  Q 346.29 40.40 346.26 40.54
  Q 345.70 41.15 345.61 41.93
  A 0.48 0.48 0.0 0 1 344.79 42.21
  Q 343.39 40.80 344.20 38.93
  A 0.45 0.45 0.0 0 0 343.87 38.31
  L 343.59 38.26
  A 0.28 0.28 0.0 0 0 343.28 38.44
  Q 342.66 40.15 341.48 41.27
  A 0.62 0.62 0.0 0 1 340.54 41.17
  Q 340.08 40.50 340.14 39.87
  A 0.55 0.55 0.0 0 0 339.11 39.55
  Q 336.45 44.19 339.66 48.29
  Q 340.09 49.08 340.07 50.50
  Q 333.22 60.47 336.98 72.27
  Q 337.68 73.62 336.91 75.99
  A 0.87 0.87 0.0 0 0 336.96 76.65
  Q 337.19 77.11 337.83 77.10
  A 0.40 0.40 0.0 0 1 338.15 77.76
  Q 334.53 81.99 331.87 87.35
  Q 331.56 87.98 330.64 88.69
  A 1.64 1.61 79.8 0 0 330.10 89.48
  Q 328.90 93.19 325.79 96.04
  Q 322.76 94.35 319.28 93.91
  L 312.53 92.06
  Q 292.51 87.22 273.30 94.24
  L 269.63 47.05
  L 273.64 43.14
  Q 273.76 41.95 274.35 40.88
  A 1.43 1.41 -35.2 0 0 274.51 39.99
  Q 274.34 38.76 273.94 37.88
  A 1.36 1.17 -61.4 0 0 271.63 38.75
  Q 271.63 39.25 272.15 39.70
  A 1.21 1.00 -89.0 0 1 272.43 40.05
  Q 273.13 41.39 272.63 42.59
  Q 269.11 41.19 265.95 42.31
  A 0.78 0.78 0.0 0 1 264.92 41.69
  L 264.34 37.88
  A 0.22 0.22 0.0 0 0 263.93 37.81
  C 262.07 41.22 262.35 46.53 267.47 46.70
  C 267.90 46.72 268.27 46.95 268.51 47.28
  L 269.55 70.41
  Q 268.11 82.86 270.05 94.66
  A 2.07 2.06 67.9 0 1 269.20 96.67
  L 260.98 102.43
  A 0.78 0.76 43.7 0 1 260.10 102.44
  Q 258.15 101.15 257.02 98.73
  Q 255.38 92.20 253.36 85.59
  Q 252.65 83.27 252.56 80.00
  C 252.03 60.15 248.94 38.96 257.84 20.59
  Q 261.07 13.92 268.44 11.44
  Q 274.05 9.55 278.75 8.95
  Q 300.24 6.24 316.18 7.38
  Q 322.70 7.85 332.18 10.90
  C 339.56 13.26 343.99 17.33 346.65 24.31
  Q 348.99 30.47 349.37 35.81
  Z
 M 281.69 12.49
  Q 281.19 16.58 281.20 18.48
  C 281.31 35.83 281.82 51.82 281.26 68.23
  Q 280.96 77.21 281.05 88.63
  A 0.57 0.54 28.2 0 0 281.16 88.96
  Q 281.59 89.53 282.33 89.31
  A 0.59 0.58 -5.2 0 0 282.75 88.81
  Q 283.65 80.60 283.63 74.48
  Q 283.53 46.45 283.21 22.61
  Q 283.13 16.95 282.67 12.50
  A 0.49 0.49 0.0 0 0 281.69 12.49
  Z
 M 316.7324 80.3767
  A 1.31 0.85 -84.2 0 0 315.7544 81.5941
  A 1.31 0.85 -84.2 0 0 316.4676 82.9833
  A 1.31 0.85 -84.2 0 0 317.4456 81.7659
  A 1.31 0.85 -84.2 0 0 316.7324 80.3767
  Z
 M 289.1675 80.7850
  A 1.37 0.86 -98.5 0 0 288.5194 82.2671
  A 1.37 0.86 -98.5 0 0 289.5725 83.4950
  A 1.37 0.86 -98.5 0 0 290.2206 82.0129
  A 1.37 0.86 -98.5 0 0 289.1675 80.7850
  Z"
/>
<path fill="#dee6ec" d="
 M 281.69 12.49
  A 0.49 0.49 0.0 0 1 282.67 12.50
  Q 283.13 16.95 283.21 22.61
  Q 283.53 46.45 283.63 74.48
  Q 283.65 80.60 282.75 88.81
  A 0.59 0.58 -5.2 0 1 282.33 89.31
  Q 281.59 89.53 281.16 88.96
  A 0.57 0.54 28.2 0 1 281.05 88.63
  Q 280.96 77.21 281.26 68.23
  C 281.82 51.82 281.31 35.83 281.20 18.48
  Q 281.19 16.58 281.69 12.49
  Z"
/>
<path fill="#7e8595" d="
 M 351.29 105.81
  Q 349.67 107.65 351.08 109.51
  A 0.44 0.44 0.0 0 0 351.81 109.47
  Q 352.02 109.10 352.08 108.55
  A 0.49 0.48 -52.8 0 1 353.01 108.42
  L 354.55 112.17
  Q 354.93 114.58 352.48 115.10
  Q 350.44 111.83 350.03 107.93
  A 0.43 0.43 0.0 0 0 349.20 107.83
  Q 348.49 109.80 347.98 111.91
  C 347.69 113.09 348.20 114.67 347.53 116.23
  Q 347.18 116.92 347.21 117.46
  A 0.78 0.77 4.6 0 0 347.81 118.16
  Q 354.57 119.68 360.82 119.36
  A 2.43 2.36 57.2 0 1 362.07 119.65
  Q 362.53 119.90 362.80 120.11
  A 1.61 1.54 -30.9 0 1 362.04 122.86
  C 359.93 123.30 358.39 121.67 356.20 121.55
  Q 351.27 121.30 347.63 121.29
  A 2.40 2.40 0.0 0 0 345.23 123.74
  Q 345.28 126.16 345.90 130.62
  Q 346.95 138.07 341.06 142.28
  Q 340.87 142.23 340.73 142.19
  A 0.31 0.31 0.0 0 1 340.58 141.71
  Q 342.78 138.78 342.92 135.23
  Q 343.54 133.77 343.37 131.30
  L 343.90 127.09
  A 0.66 0.60 4.5 0 0 343.27 126.41
  Q 343.06 126.40 342.72 126.52
  A 0.49 0.49 0.0 0 1 342.08 125.96
  L 342.37 124.53
  A 0.79 0.78 -79.5 0 0 341.73 123.59
  Q 340.95 123.46 340.12 124.24
  A 1.43 1.42 16.2 0 1 339.46 124.60
  Q 336.89 125.21 334.81 124.80
  Q 336.16 118.43 335.37 112.42
  Q 339.02 115.70 339.26 112.74
  C 340.24 113.64 339.72 115.90 341.87 115.88
  A 0.56 0.56 0.0 0 0 342.42 115.25
  Q 341.86 111.32 339.79 108.51
  L 340.04 106.03
  A 1.54 1.50 34.2 0 0 339.86 105.14
  L 336.18 98.60
  A 0.12 0.11 50.4 0 1 336.19 98.47
  L 336.38 98.27
  A 0.32 0.32 0.0 0 1 336.81 98.33
  Q 339.57 101.80 340.60 105.59
  A 1.17 1.16 5.2 0 0 341.23 106.34
  Q 341.96 106.67 342.81 106.20
  A 0.52 0.52 0.0 0 0 342.84 105.31
  Q 340.86 103.98 341.36 103.19
  Q 342.04 104.00 342.68 103.96
  Q 343.41 103.90 343.46 102.86
  Q 343.54 101.32 342.56 100.74
  Q 344.75 98.79 343.81 94.61
  Q 341.85 85.95 342.09 79.27
  Q 343.63 75.81 343.72 73.75
  Q 344.18 63.44 342.95 48.52
  Q 344.27 49.02 346.07 48.40
  A 1.84 1.79 -79.5 0 0 346.89 47.82
  C 348.43 45.88 347.42 43.44 346.80 40.91
  Q 346.75 40.73 346.60 40.64
  Q 346.44 40.55 346.26 40.54
  Q 346.29 40.40 346.36 40.29
  Q 346.41 40.18 346.55 40.15
  Q 349.08 39.56 349.37 35.81
  Q 350.05 38.15 349.96 40.59
  A 4.01 3.73 38.7 0 0 350.17 42.01
  Q 352.10 47.79 352.83 50.40
  Q 354.38 56.00 354.37 64.53
  Q 354.36 73.90 346.00 77.37
  A 2.15 2.15 0.0 0 0 344.68 79.38
  Q 344.88 91.62 344.87 99.01
  Q 344.87 102.31 346.00 104.93
  A 0.85 0.85 0.0 0 0 346.72 105.45
  L 351.29 105.81
  Z"
/>
<path fill="#212124" d="
 M 250.75 106.39
  Q 250.26 107.23 249.39 107.61
  A 1.00 0.99 84.8 0 0 248.80 108.32
  Q 248.66 108.90 248.97 109.03
  A 1.16 1.16 0.0 0 1 248.86 111.20
  Q 244.44 112.64 239.70 111.23
  Q 238.83 110.19 239.26 108.79
  A 0.65 0.63 31.7 0 0 239.10 108.14
  Q 238.56 107.59 237.52 107.99
  Q 239.34 104.08 238.70 99.31
  A 3.01 2.84 28.6 0 0 238.37 98.30
  L 229.35 81.37
  A 0.91 0.75 -84.3 0 0 229.23 81.19
  C 227.79 79.41 224.88 76.76 224.09 74.00
  A 1.17 1.17 0.0 0 0 222.35 73.32
  Q 217.25 76.45 211.25 76.08
  C 206.49 75.79 205.14 68.31 205.41 64.71
  C 205.70 60.89 205.18 56.61 205.92 53.00
  C 206.77 48.88 211.84 34.65 217.84 36.16
  Q 220.04 36.71 220.87 38.19
  Q 224.31 44.29 226.14 51.33
  Q 226.52 52.77 226.84 53.66
  A 2.72 0.18 68.8 0 1 227.46 55.64
  L 228.72 68.98
  A 2.20 2.19 11.7 0 0 229.86 70.70
  Q 232.40 72.07 232.63 74.25
  Q 232.91 76.83 233.21 78.77
  A 4.73 4.48 28.8 0 0 233.66 80.17
  L 241.93 96.57
  A 3.51 3.36 8.8 0 0 242.71 97.59
  Q 244.48 99.19 246.94 104.55
  Q 247.79 106.39 250.75 106.39
  Z"
/>
<path fill="#47464c" d="
 M 273.64 43.14
  L 272.63 42.59
  Q 273.13 41.39 272.43 40.05
  A 1.21 1.00 -89.0 0 0 272.15 39.70
  Q 271.63 39.25 271.63 38.75
  A 1.36 1.17 -61.4 0 1 273.94 37.88
  Q 274.34 38.76 274.51 39.99
  A 1.43 1.41 -35.2 0 1 274.35 40.88
  Q 273.76 41.95 273.64 43.14
  Z"
/>
<path fill="#36363c" d="
 M 272.63 42.59
  L 273.64 43.14
  L 269.63 47.05
  Q 268.97 47.59 268.51 47.28
  C 268.27 46.95 267.90 46.72 267.47 46.70
  C 262.35 46.53 262.07 41.22 263.93 37.81
  A 0.22 0.22 0.0 0 1 264.34 37.88
  L 264.92 41.69
  A 0.78 0.78 0.0 0 0 265.95 42.31
  Q 269.11 41.19 272.63 42.59
  Z
 M 270.7568 43.8274
  A 1.72 0.74 -7.1 0 0 268.9585 43.3057
  A 1.72 0.74 -7.1 0 0 267.3432 44.2526
  A 1.72 0.74 -7.1 0 0 269.1415 44.7743
  A 1.72 0.74 -7.1 0 0 270.7568 43.8274
  Z"
/>
<path fill="#575863" d="
 M 346.26 40.54
  Q 346.44 40.55 346.60 40.64
  Q 346.75 40.73 346.80 40.91
  C 347.42 43.44 348.43 45.88 346.89 47.82
  A 1.84 1.79 -79.5 0 1 346.07 48.40
  Q 344.27 49.02 342.95 48.52
  Q 341.09 47.89 339.66 48.29
  Q 336.45 44.19 339.11 39.55
  A 0.55 0.55 0.0 0 1 340.14 39.87
  Q 340.08 40.50 340.54 41.17
  A 0.62 0.62 0.0 0 0 341.48 41.27
  Q 342.66 40.15 343.28 38.44
  A 0.28 0.28 0.0 0 1 343.59 38.26
  L 343.87 38.31
  A 0.45 0.45 0.0 0 1 344.20 38.93
  Q 343.39 40.80 344.79 42.21
  A 0.48 0.48 0.0 0 0 345.61 41.93
  Q 345.70 41.15 346.26 40.54
  Z"
/>
<ellipse fill="#9aa2b1" cx="0.00" cy="0.00" transform="translate(269.05,44.04) rotate(-7.1)" rx="1.72" ry="0.74
"/>
</svg>
