<?xml version="1.0" encoding="UTF-8"?>
<svg xmlns="http://www.w3.org/2000/svg" viewBox="560 180 980 540">
  <path d="M0 0 C19.42092791 -0.63485946 36.50799966 6.9042994 50.9375 19.44140625 C64.42739165 32.10999551 72.66332588 49.56776144 73.49291992 68.10913086 C73.46438516 72.82255456 73.34873347 77.52568943 73.17944336 82.23583984 C73.11290136 84.25308811 73.07176689 86.27112375 73.03125 88.2890625 C72.97118774 90.05636719 72.97118774 90.05636719 72.90991211 91.859375 C73.4102761 95.92719899 74.76692638 97.99348959 77.31640625 101.1640625 C79.66795205 102.83543312 81.8680128 104.22587031 84.37890625 105.6015625 C85.47561646 106.22490479 85.47561646 106.22490479 86.59448242 106.86083984 C89.15956177 108.31172511 91.73699759 109.738816 94.31640625 111.1640625 C96.36346074 112.3030629 98.4103262 113.44240306 100.45703125 114.58203125 C103.83722197 116.46161948 107.21871658 118.33872923 110.60327148 120.21044922 C119.51563114 125.1402079 128.36857868 130.16804919 137.20236206 135.23703003 C144.46270624 139.40255752 151.74081601 143.53285495 159.05419922 147.60473633 C168.17821882 152.68507564 177.28208575 157.80062984 186.31640625 163.0390625 C187.19409668 163.53817139 188.07178711 164.03728027 188.97607422 164.55151367 C196.58291638 169.00438892 205.08003041 174.34742183 208.70214844 182.74023438 C210.12248396 188.34480157 209.918578 194.16704955 209.94140625 199.9140625 C209.96691217 202.51311617 210.00040858 205.11210716 210.04296875 207.7109375 C210.04893066 208.85401367 210.05489258 209.99708984 210.06103516 211.17480469 C210.31259615 214.1194632 210.93559272 215.61980277 212.31640625 218.1640625 C220.27322975 218.41538712 227.52468687 217.85166464 235.29296875 216.15234375 C236.29436386 215.94373718 237.29575897 215.73513062 238.32749939 215.52020264 C241.53454554 214.84991274 244.73788466 214.16347927 247.94140625 213.4765625 C251.2488282 212.7801619 254.55703959 212.08760252 257.86531067 211.39524841 C260.03242647 210.94139067 262.19924975 210.48613379 264.36576843 210.0294342 C273.50349451 208.10707019 282.66144923 206.32942945 291.85595703 204.69848633 C301.45304304 203.09336345 301.45304304 203.09336345 309.49609375 198.0390625 C311.9547595 194.15584793 314.2073674 190.17960616 316.44140625 186.1640625 C333.32846015 156.54824361 359.00214724 135.06955117 392.04931641 125.74560547 C398.39373543 124.11816566 404.83937744 123.09702313 411.31640625 122.1640625 C412.41082031 121.97972656 413.50523437 121.79539062 414.6328125 121.60546875 C446.27927118 117.8132632 477.88955301 125.8327189 503.69140625 144.5390625 C505.5884452 146.05352753 507.46325068 147.5962055 509.31640625 149.1640625 C509.8283252 149.58848633 510.34024414 150.01291016 510.86767578 150.45019531 C524.20749694 161.61596974 534.26647287 175.27419552 542.4140625 190.578125 C542.73906738 191.17012695 543.06407227 191.76212891 543.39892578 192.37207031 C544.31640625 194.1640625 544.31640625 194.1640625 545.02685547 196.07324219 C545.91831963 198.18859967 546.72156341 199.50040932 548.31640625 201.1640625 C550.68088271 202.10742518 550.68088271 202.10742518 553.47607422 202.67407227 C554.5553569 202.92008179 555.63463959 203.16609131 556.74662781 203.41955566 C563.23818427 204.77342349 569.74550746 206.02409828 576.265625 207.23046875 C577.77397799 207.51249236 579.28226224 207.79488391 580.79048157 208.07762146 C584.72693627 208.81476841 588.66413288 209.54786569 592.6015625 210.27978516 C598.91155546 211.45328994 605.2205019 212.63239381 611.52921486 213.81275749 C613.71399327 214.2208251 615.89916324 214.62673936 618.08439636 215.03236389 C619.43999023 215.28523108 620.7955664 215.53819315 622.15112305 215.79125977 C623.40251068 216.02426788 624.65389832 216.257276 625.94320679 216.49734497 C628.77472832 217.05699911 631.55345734 217.70459147 634.35083008 218.40991211 C638.29549293 219.33333287 641.36828555 219.00408818 645.31640625 218.1640625 C645.33098877 217.29193115 645.34557129 216.4197998 645.3605957 215.52124023 C645.42197997 212.25746254 645.49619013 208.99448293 645.57885742 205.73120117 C645.61192619 204.3240847 645.64001329 202.91684134 645.6628418 201.50952148 C645.69672424 199.47585426 645.74904843 197.44333115 645.8046875 195.41015625 C645.83087158 194.18997803 645.85705566 192.9697998 645.8840332 191.71264648 C646.82801689 183.96515752 650.6717904 177.20530549 656.65234375 172.21484375 C665.81322722 165.57136124 675.82095999 160.301484 685.7109375 154.83984375 C691.96998651 151.37624056 698.15086535 147.79088122 704.31640625 144.1640625 C712.43016709 139.39904906 720.59454849 134.7399939 728.81640625 130.1640625 C740.15675602 123.84930809 751.38008908 117.3499953 762.56738281 110.76855469 C765.20964088 109.22637707 767.86500805 107.71031926 770.52734375 106.203125 C771.32076172 105.74969727 772.11417969 105.29626953 772.93164062 104.82910156 C774.38908872 103.99708388 775.85104888 103.17289724 777.31835938 102.35839844 C780.84794549 100.32897583 782.97397355 99.03747691 784.31640625 95.1640625 C784.42621003 92.63857556 784.43155631 90.23205987 784.3359375 87.71484375 C784.30119235 86.21959884 784.26804817 84.72431605 784.23632812 83.22900391 C784.21755615 82.45179993 784.19878418 81.67459595 784.17944336 80.87384033 C783.68982439 57.64827969 787.23521214 40.04406531 803.9921875 22.43359375 C810.16455961 16.40645392 816.5358711 11.78983827 824.19140625 7.8515625 C824.81474854 7.52591309 825.43809082 7.20026367 826.08032227 6.86474609 C836.13867126 1.93491173 846.46991287 0.60203093 857.56640625 0.6640625 C858.7479126 0.66905762 859.92941895 0.67405273 861.14672852 0.67919922 C870.74152369 0.86979382 878.51955236 2.3065094 887.31640625 6.1640625 C888.92128906 6.83308594 888.92128906 6.83308594 890.55859375 7.515625 C908.47911621 15.67789859 920.76505212 30.76135 927.69140625 48.9140625 C934.37946674 67.79064443 932.91248094 88.45786208 924.52905273 106.44042969 C921.18477132 113.28668904 917.44079904 119.48215475 912.31640625 125.1640625 C911.82140625 125.75058594 911.32640625 126.33710938 910.81640625 126.94140625 C900.0087859 138.85680769 881.72442281 148.10288646 865.74682617 149.36743164 C844.73220176 150.13562542 826.40130236 146.68263914 810.31640625 132.1640625 C805.41582551 127.5585 800.83783652 122.91553553 796.99609375 117.37890625 C794.19069052 115.34988205 791.68609312 115.90030658 788.31640625 116.1640625 C784.9490958 117.59789422 784.9490958 117.59789422 781.65234375 119.72265625 C781.03085953 120.09817123 780.40937531 120.47368622 779.76905823 120.86058044 C777.73444747 122.09384434 775.71339932 123.34773984 773.69140625 124.6015625 C772.26481011 125.47000021 770.83713992 126.33667582 769.40844727 127.20166016 C766.47436695 128.97919625 763.54426238 130.76302233 760.61669922 132.55126953 C754.20728908 136.45674851 747.73327479 140.25120478 741.25390625 144.0390625 C740.65475403 144.39005005 740.05560181 144.7410376 739.43829346 145.10266113 C731.51422201 149.74441918 723.56189976 154.33381459 715.56640625 158.8515625 C714.65544189 159.36662354 713.74447754 159.88168457 712.8059082 160.41235352 C707.77536861 163.24611599 702.72386207 166.03709338 697.65234375 168.796875 C696.53311523 169.41087158 695.41388672 170.02486816 694.26074219 170.6574707 C692.12102548 171.83009715 689.97617799 172.99343301 687.82519531 174.14526367 C679.48313509 178.72983064 670.41995725 184.17796192 666.8984375 193.48828125 C664.9581704 202.40830113 665.38908752 213.46037688 668.31640625 222.1640625 C670.46452366 224.78030738 672.02903111 225.58577632 675.34375 226.12109375 C676.13048096 226.26071533 676.91721191 226.40033691 677.7277832 226.54418945 C678.56140381 226.68687256 679.39502441 226.82955566 680.25390625 226.9765625 C690.71378189 228.98864747 700.5187499 231.7035155 707.23046875 240.55078125 C708.26356241 242.08555708 709.29016301 243.62469764 710.31640625 245.1640625 C716.24178955 246.24140492 718.95466529 244.99969572 723.87890625 241.6015625 C728.89913422 238.19942454 728.89913422 238.19942454 733.00390625 237.8515625 C736.74866245 239.33533383 739.51236974 241.25152971 742.6171875 243.7890625 C745.4177795 246.05528867 747.16111463 246.28982504 750.69256592 246.29536438 C751.61220123 246.29937256 752.53183655 246.30338074 753.4793396 246.30751038 C754.49130402 246.30698166 755.50326843 246.30645294 756.54589844 246.3059082 C758.14121902 246.31111984 758.14121902 246.31111984 759.76876831 246.31643677 C762.08451563 246.32380273 764.40027005 246.32914362 766.71602631 246.33272743 C770.38083156 246.33987799 774.04550175 246.35553432 777.71026611 246.37406921 C788.13234599 246.42660334 798.55435308 246.47451984 808.9765625 246.48999023 C815.34619836 246.50006645 821.71549656 246.52938428 828.08499908 246.57131004 C830.51384173 246.58363197 832.94273204 246.58873914 835.37160492 246.58651161 C838.77121551 246.58416124 842.1698563 246.60630728 845.56933594 246.6340332 C846.57320343 246.62743179 847.57707092 246.62083038 848.61135864 246.61402893 C854.4707587 246.69250332 857.85182086 247.257707 862.31640625 251.1640625 C862.64640625 251.8240625 862.97640625 252.4840625 863.31640625 253.1640625 C867.1716976 252.92310679 869.30924713 251.54950856 872.25390625 249.2265625 C877.2621683 245.32292647 881.69445383 243.6449216 888.171875 243.85546875 C895.14264659 244.85854882 899.93756339 248.12653464 904.22265625 253.578125 C907.52939222 258.37289216 906.57924613 264.11184024 906.61157227 269.74780273 C906.62305535 271.14146101 906.6434491 272.53507657 906.6730957 273.9284668 C906.98315621 288.50131082 906.98315621 288.50131082 902.31640625 294.1640625 C900.02734375 296.125 900.02734375 296.125 897.69140625 297.5390625 C896.52738281 298.26222656 896.52738281 298.26222656 895.33984375 299 C889.94041701 302.10623392 884.44323024 301.58247975 878.31640625 301.1640625 C874.64140202 299.85156099 872.66812284 298.47288682 869.75390625 295.9140625 C867.46933295 293.90271639 867.46933295 293.90271639 864.75390625 294.2265625 C862.27685941 295.03088482 862.27685941 295.03088482 860.45888138 296.70025921 C857.9245227 298.4318091 856.63806424 298.53422544 853.5993042 298.52241516 C852.65456741 298.52628235 851.70983063 298.53014954 850.73646545 298.53413391 C849.70678146 298.52327255 848.67709747 298.51241119 847.61621094 298.5012207 C845.98138008 298.50205154 845.98138008 298.50205154 844.31352234 298.50289917 C841.94596195 298.50263918 839.5783952 298.49575329 837.21086884 298.48305702 C833.46122332 298.46471137 829.71213755 298.46733808 825.96246338 298.47612 C815.30120115 298.4979542 804.64020199 298.48714546 793.97900391 298.44897461 C787.45794141 298.4258812 780.93729107 298.43442218 774.41623688 298.4594326 C771.93319007 298.46302471 769.4501002 298.45537128 766.96712494 298.43618202 C763.48886113 298.40982876 760.01245416 298.42029441 756.53417969 298.4387207 C755.51259262 298.42178665 754.49100555 298.4048526 753.4384613 298.3874054 C746.24324434 298.48017893 742.62031439 300.42880576 737.31640625 305.1640625 C733.83129792 306.90661666 730.12686554 306.60757498 726.31640625 306.1640625 C720.90155716 304.32048547 718.05067989 300.97638411 715.31640625 296.1640625 C712.02564629 296.54310458 712.02564629 296.54310458 709.31640625 298.1640625 C709.27576793 299.83023365 709.27368525 301.49794345 709.31640625 303.1640625 C714.3454344 305.40893629 719.37798691 307.2402459 724.6328125 308.87890625 C725.42990631 309.13067123 726.22700012 309.38243622 727.04824829 309.64183044 C729.65742524 310.46509185 732.26814924 311.28332714 734.87890625 312.1015625 C736.70949995 312.67820331 738.53998341 313.25519415 740.37036133 313.83251953 C744.14704376 315.0231734 747.9243314 316.21187689 751.70214844 317.39892578 C757.03595391 319.07517601 762.36794024 320.75713846 767.69921875 322.44140625 C768.93623535 322.8321357 768.93623535 322.8321357 770.19824219 323.23075867 C774.22314239 324.50220827 778.2478602 325.77423371 782.27246094 327.04663086 C783.80532618 327.53112634 785.33820352 328.01558357 786.87109375 328.5 C787.96997925 328.84729912 787.96997925 328.84729912 789.09106445 329.20161438 C793.47823166 330.58702415 797.86869247 331.96137692 802.26171875 333.328125 C803.27339111 333.64475098 804.28506348 333.96137695 805.32739258 334.28759766 C807.09669853 334.84113216 808.86722128 335.39080556 810.6394043 335.93505859 C826.73649879 340.98984082 826.73649879 340.98984082 831.28125 347.75 C833.30733069 352.47497309 833.13526817 357.15912194 832.31640625 362.1640625 C829.996672 367.07119265 826.59863694 369.9751673 822.31640625 373.1640625 C817.14929035 374.88643447 812.21040867 374.81967872 807.06640625 373.0390625 C800.92900678 368.85447195 799.40877483 365.79397357 798.00390625 358.6640625 C796.77516872 354.43418391 796.15764177 352.63259504 792.24375916 350.45272827 C790.96270668 350.00227389 789.67199378 349.57871635 788.37475586 349.17724609 C787.66939918 348.93649542 786.96404249 348.69574474 786.23731136 348.44769859 C784.71922671 347.93207426 783.19742615 347.42728648 781.67246628 346.93236542 C779.33728627 346.1708714 777.01700175 345.37492132 774.69778442 344.56622314 C769.70751881 342.83020472 764.70297339 341.13821227 759.6953125 339.453125 C758.79448378 339.14971569 757.89365505 338.84630638 756.96552849 338.53370285 C752.21658886 336.93503188 747.46634041 335.3403181 742.71508789 333.74853516 C738.8091482 332.43910508 734.90603753 331.12169894 731.00512695 329.79736328 C726.25093926 328.18335186 721.49245381 326.58269491 716.73057365 324.99152756 C714.93062 324.38769851 713.13218669 323.77931635 711.33539009 323.16615677 C708.82607696 322.31099261 706.3115711 321.47318509 703.79516602 320.63916016 C703.06719818 320.38676575 702.33923035 320.13437134 701.58920288 319.87432861 C695.45409638 317.87413539 689.22446145 316.78208964 683.2421875 319.625 C682.37980469 320.25664063 681.51742187 320.88828125 680.62890625 321.5390625 C672.06248949 327.70688257 662.60685582 328.76022842 652.31640625 327.1640625 C649.23564229 326.21362114 646.3245227 324.96864637 643.37890625 323.6640625 C630.05594876 317.90262926 618.01645763 319.7819596 603.94921875 321.921875 C602.77646896 322.09810898 601.60371918 322.27434296 600.39543152 322.45591736 C588.60790862 324.2430024 576.84465817 326.1723412 565.0871582 328.14624023 C561.59182409 328.73278518 558.09576941 329.31488472 554.59960938 329.89648438 C549.12806727 330.80835179 543.65990906 331.73874216 538.19293213 332.67755127 C535.54945009 333.12464744 532.90350545 333.54979225 530.25537109 333.96826172 C528.81077673 334.2087359 527.36626961 334.44973513 525.921875 334.69140625 C524.72071045 334.883396 523.5195459 335.07538574 522.28198242 335.27319336 C518.89403846 336.29094322 517.48813128 337.40545425 515.31640625 340.1640625 C513.78976138 344.7439971 514.13197915 349.30477278 514.12890625 354.1015625 C514.11666016 355.10380859 514.10441406 356.10605469 514.09179688 357.13867188 C514.08986328 358.10482422 514.08792969 359.07097656 514.0859375 360.06640625 C514.07977417 361.38886353 514.07977417 361.38886353 514.07348633 362.73803711 C514.34008245 365.40051513 514.78153434 366.97147554 516.31640625 369.1640625 C518.07539997 370.0327029 518.07539997 370.0327029 520.19140625 370.32421875 C520.99835937 370.47133301 521.8053125 370.61844727 522.63671875 370.77001953 C527.51950869 371.48802454 532.41074347 372.06463551 537.31640625 372.6015625 C584.07616252 378.05907899 626.99346835 394.38829362 662.31640625 426.1640625 C662.84347168 426.63086426 663.37053711 427.09766602 663.91357422 427.57861328 C680.91935211 442.64410019 694.02501713 460.53087162 705.31640625 480.1640625 C705.83895996 481.05448242 705.83895996 481.05448242 706.37207031 481.96289062 C729.0276269 520.79455961 743.28173801 567.95064654 754.33517683 611.38823819 C754.95075058 613.75699955 755.58758592 616.12044516 756.25523055 618.47506022 C763.84478541 645.32548924 763.31369098 672.26705587 763.19591186 699.96550779 C763.1668335 707.15441567 763.17969055 714.34312058 763.19313678 721.53205318 C763.21819203 735.60839065 763.20421606 749.68447552 763.17345978 763.76078937 C763.14675254 776.07384506 763.13458603 788.38681687 763.13630104 800.69990158 C763.13645002 801.93088619 763.13645002 801.93088619 763.13660201 803.18673917 C763.13703616 806.51896784 763.13755144 809.85119649 763.13817922 813.18342513 C763.14393857 844.35274323 763.11148887 875.5219126 763.05979332 906.69118295 C763.01414336 934.32849242 762.99589536 961.96568142 763.00268555 989.60302734 C763.00311281 991.37936595 763.00353962 993.15570455 763.003966 994.93204315 C763.00417769 995.81027272 763.00438939 996.68850228 763.0046075 997.59334487 C763.00566279 1002.01509359 763.00666772 1006.43684233 763.007617 1010.85859108 C763.00790276 1012.16737685 763.00790276 1012.16737685 763.00819429 1013.50260273 C763.01292216 1036.66791198 762.99834145 1059.83320777 762.97745258 1082.9985069 C762.97671216 1083.82326273 762.97597175 1084.64801856 762.9752089 1085.49776699 C762.97446907 1086.32093846 762.97372925 1087.14410993 762.972967 1087.992226 C762.97222882 1088.81380462 762.97149063 1089.63538324 762.97073007 1090.48185819 C762.96923503 1092.13626729 762.96772323 1093.79067638 762.96619454 1095.44508545 C762.95568952 1106.93848327 762.9520534 1118.43186461 762.95307706 1129.92526684 C762.9543295 1144.7351144 762.94212251 1159.54485272 762.90700414 1174.3546619 C762.88883301 1182.17072871 762.88124779 1189.98662505 762.88963886 1197.80270951 C762.89465714 1203.66053237 762.87849658 1209.51817966 762.85451279 1215.37595932 C762.84801978 1217.72865509 762.84805693 1220.08138106 762.85569044 1222.4340734 C762.96044104 1258.33127018 755.32495649 1293.81301881 729.62890625 1320.3515625 C710.53964973 1339.31821621 684.40632605 1347.46923276 658.02758789 1347.47753906 C649.25067524 1347.35594711 640.64052479 1346.46323402 631.9543457 1345.23168945 C623.6690363 1344.07187003 615.54753065 1343.31507517 607.31640625 1345.1640625 C607.3321167 1346.05544922 607.3321167 1346.05544922 607.34814453 1346.96484375 C607.39011756 1349.69787239 607.41586205 1352.43083287 607.44140625 1355.1640625 C607.45816406 1356.09863281 607.47492187 1357.03320312 607.4921875 1357.99609375 C607.54126181 1365.01372076 607.53998211 1371.48436851 602.87890625 1377.1015625 C599.48465004 1379.83352482 596.94273065 1380.2872338 592.71875 1380.4453125 C591.83509766 1380.48269531 590.95144531 1380.52007813 590.04101562 1380.55859375 C588.17904204 1380.62905386 586.31706284 1380.69936574 584.45507812 1380.76953125 C583.1315332 1380.82560547 583.1315332 1380.82560547 581.78125 1380.8828125 C580.56876587 1380.92825195 580.56876587 1380.92825195 579.33178711 1380.97460938 C577.24712379 1381.04806194 577.24712379 1381.04806194 575.31640625 1382.1640625 C575.10868454 1384.3243683 575.00166827 1386.49462987 574.94140625 1388.6640625 C574.49560844 1395.85529268 573.77991559 1401.86814232 568.37890625 1407.0078125 C561.33590766 1412.49720846 555.11384224 1412.88549233 546.31640625 1412.1640625 C539.96463996 1410.57179411 534.93333366 1407.78098991 530.31640625 1403.1640625 C529.98640625 1402.1740625 529.65640625 1401.1840625 529.31640625 1400.1640625 C525.9356129 1399.87372719 522.68843009 1399.72998722 519.31640625 1400.1640625 C515.98225401 1403.1729316 514.43528165 1406.02527985 514.18332767 1410.55838585 C514.17947276 1411.51214922 514.17561785 1412.46591259 514.17164612 1413.44857788 C514.16129837 1415.09258575 514.16129837 1415.09258575 514.15074158 1416.76980591 C514.1481282 1417.97289398 514.14551483 1419.17598206 514.14282227 1420.41552734 C514.13255653 1422.3606363 514.12228872 1424.30574524 514.11194313 1426.25085378 C514.10171011 1428.34382123 514.09385896 1430.43678628 514.08661079 1432.52976608 C514.07113154 1436.90225916 514.04717732 1441.27468041 514.02171326 1445.64712524 C513.95059841 1458.08192385 513.89096503 1470.51676488 513.83959961 1482.95166016 C513.81116116 1489.81801249 513.7757005 1496.68429457 513.73294586 1503.55057299 C513.70637467 1507.88479523 513.68834575 1512.21893804 513.67690861 1516.55322528 C513.6655179 1519.90842188 513.64142762 1523.26350933 513.61938477 1526.61865234 C513.61879562 1527.80149811 513.61820648 1528.98434387 513.61759949 1530.20303345 C513.45072849 1549.50646261 509.29456209 1561.91158024 496.68676758 1576.31396484 C496.05579666 1577.03482269 495.42482574 1577.75568054 494.7747345 1578.49838257 C494.29348618 1579.04805695 493.81223785 1579.59773132 493.31640625 1580.1640625 C493.9750699 1580.16254362 494.63373355 1580.16102474 495.31235671 1580.15945983 C534.32588605 1580.07000187 573.33940218 1580.00134379 612.35301326 1579.95980118 C617.03449599 1579.95479819 621.71597852 1579.94962091 626.39746094 1579.94433594 C627.3294835 1579.9432867 628.26150607 1579.94223745 629.22177175 1579.94115642 C644.32490755 1579.9237379 659.42798262 1579.89219226 674.53108236 1579.85545132 C690.02130787 1579.81808211 705.51150152 1579.79583517 721.00177026 1579.78770852 C730.56476096 1579.78221239 740.12758004 1579.76483606 749.69051793 1579.73239663 C756.24282301 1579.71129834 762.795039 1579.70485179 769.3473756 1579.71005699 C773.13118685 1579.71262611 776.91469761 1579.70861095 780.69845581 1579.6872406 C784.79605612 1579.66426601 788.89301189 1579.67208186 792.99066162 1579.68304443 C794.19298612 1579.67139307 795.39531063 1579.6597417 796.6340692 1579.64773726 C798.27624462 1579.65968356 798.27624462 1579.65968356 799.95159531 1579.67187119 C800.89785837 1579.6703523 801.84412143 1579.66883342 802.81905913 1579.66726851 C806.09773858 1580.31949192 807.28567599 1581.55485201 809.31640625 1584.1640625 C809.99737351 1588.32552909 809.88030792 1590.31961647 807.52453947 1593.84739339 C802.67719565 1597.34777536 798.26470065 1596.85296284 792.42377472 1596.7932682 C791.19880931 1596.80053541 789.97384389 1596.80780261 788.71175832 1596.81529003 C785.29902959 1596.83043665 781.88767003 1596.82308425 778.47503533 1596.80640027 C774.76730027 1596.79374706 771.05967545 1596.81000418 767.35195589 1596.82261693 C760.84965376 1596.84070437 754.34755905 1596.84010999 747.84524727 1596.82738113 C738.17628813 1596.80850452 728.50750467 1596.81811864 718.8385468 1596.83342267 C701.57201556 1596.85978375 684.30557669 1596.85745658 667.03903662 1596.84302811 C651.92905506 1596.83046331 636.81910741 1596.82716075 621.7091217 1596.83314133 C620.7078623 1596.83352325 619.7066029 1596.83390518 618.67500231 1596.83429868 C614.61083216 1596.8358553 610.54666204 1596.8374473 606.48249193 1596.8390975 C568.33702005 1596.85440153 530.1916071 1596.84051089 492.04614431 1596.81361301 C458.13668834 1596.78988397 424.22732625 1596.79200707 390.31787109 1596.81591797 C352.24334061 1596.84267591 314.16886221 1596.85331629 276.09432364 1596.83785665 C272.03744603 1596.836253 267.98056842 1596.8346888 263.9236908 1596.83314133 C262.42526852 1596.83254825 262.42526852 1596.83254825 260.8965751 1596.83194319 C245.79399662 1596.82624952 230.69145572 1596.8329189 215.58888245 1596.84553909 C198.42107753 1596.8598133 181.25337963 1596.85630857 164.0855881 1596.82913537 C154.47064935 1596.81441996 144.8559422 1596.81354415 135.2410093 1596.83236625 C128.82573799 1596.8435425 122.41065313 1596.8366655 115.99540954 1596.8148424 C112.33537013 1596.80290073 108.67579223 1596.79897887 105.01576668 1596.81687231 C101.0799416 1596.83591871 97.14485254 1596.81661774 93.20903778 1596.7932682 C91.49097161 1596.81082695 91.49097161 1596.81082695 89.73819703 1596.82874042 C82.09974148 1596.73735782 82.09974148 1596.73735782 78.10827303 1593.81614339 C75.91109326 1590.56417258 75.57974208 1589.01108652 76.31640625 1585.1640625 C77.64764023 1583.01053238 77.64764023 1583.01053238 80.31640625 1581.1640625 C84.06470768 1580.5565159 87.78964149 1580.64266215 91.5791626 1580.68304443 C92.74230917 1580.67962673 93.90545574 1580.67620903 95.10384917 1580.67268777 C98.33309741 1580.66723316 101.56170533 1580.67975263 104.79087782 1580.69980001 C108.27277585 1580.71705869 111.7546435 1580.71122945 115.23657227 1580.70819092 C121.26944317 1580.70609254 127.30214116 1580.71865254 133.33496857 1580.74114227 C142.057416 1580.77363747 150.77977975 1580.78406674 159.50228116 1580.78909424 C173.65358641 1580.7978508 187.80479949 1580.82447614 201.95605469 1580.86230469 C215.70344583 1580.89901545 229.45081194 1580.92733178 243.19824219 1580.94433594 C244.46912596 1580.94591228 244.46912596 1580.94591228 245.76568416 1580.94752046 C250.0160777 1580.95274058 254.26647142 1580.95779542 258.51686525 1580.96276808 C293.78344463 1581.00424135 329.04991694 1581.07469958 364.31640625 1581.1640625 C364.31640625 1580.5040625 364.31640625 1579.8440625 364.31640625 1579.1640625 C363.75953125 1578.9371875 363.20265625 1578.7103125 362.62890625 1578.4765625 C352.91764773 1572.96476712 347.26522924 1561.48494296 344.31640625 1551.1640625 C343.48027607 1547.56632569 343.18631964 1544.23829348 343.17164612 1540.54724121 C343.16474762 1539.4285112 343.15784912 1538.30978119 343.15074158 1537.15715027 C343.14682152 1535.33042534 343.14682152 1535.33042534 343.14282227 1533.46679688 C343.13255783 1531.48678828 343.12229123 1529.5067797 343.11194313 1527.52677155 C343.1017309 1525.40357788 343.09387009 1523.28038649 343.08661079 1521.15718079 C343.07112364 1516.72791672 343.04717582 1512.29872333 343.02171326 1507.86950684 C342.9505986 1495.276494 342.8906972 1482.68344151 342.83959961 1470.09033203 C342.81128704 1463.13101819 342.77590521 1456.17177552 342.73294586 1449.21253633 C342.70619962 1444.81085748 342.68827888 1440.40925904 342.67690861 1436.00751495 C342.66563065 1432.62539701 342.64151194 1429.24339206 342.61938477 1425.86132812 C342.61850105 1424.0346032 342.61850105 1424.0346032 342.61759949 1422.17097473 C342.60788116 1421.05224472 342.59816284 1419.93351471 342.58815002 1418.78088379 C342.58180212 1417.32635677 342.58180212 1417.32635677 342.57532597 1415.84244537 C342.17310685 1411.68170861 341.10466561 1408.97550596 338.19140625 1405.9765625 C334.57331027 1403.69558895 331.49691734 1403.01433594 327.31640625 1402.1640625 C326.95289063 1402.69515625 326.589375 1403.22625 326.21484375 1403.7734375 C321.73412382 1410.06942346 317.44737208 1414.23692775 309.59375 1415.91015625 C303.69724736 1416.56757078 298.26569661 1416.13870768 292.94140625 1413.4765625 C286.71747168 1407.99357252 282.47363109 1402.12487883 281.8046875 1393.76171875 C281.73272838 1392.25057723 281.67425851 1390.73873642 281.62890625 1389.2265625 C281.59474609 1388.44732422 281.56058594 1387.66808594 281.52539062 1386.86523438 C281.44379915 1384.96531857 281.3784074 1383.06471847 281.31640625 1381.1640625 C280.72214844 1381.14947998 280.12789062 1381.13489746 279.515625 1381.11987305 C276.78194991 1381.04467572 274.04940208 1380.94825728 271.31640625 1380.8515625 C270.38183594 1380.82900391 269.44726562 1380.80644531 268.484375 1380.78320312 C262.4927161 1380.55275471 257.67080727 1379.96675679 252.31640625 1377.1640625 C248.36273408 1372.1492656 248.83834469 1366.1588392 248.75390625 1360.0390625 C248.71938877 1358.07795803 248.67673769 1356.11697573 248.625 1354.15625 C248.61267334 1353.29370605 248.60034668 1352.43116211 248.58764648 1351.54248047 C248.2943267 1348.97045405 247.694382 1347.34557853 246.31640625 1345.1640625 C238.74151719 1341.37661797 226.08180177 1344.23762171 218.06640625 1345.6640625 C188.35514574 1350.72047997 162.84277508 1346.63851847 137.82421875 1329.984375 C117.00018215 1314.86910856 104.61369484 1292.34685854 98.62890625 1267.7265625 C98.42628174 1266.89310303 98.22365723 1266.05964355 98.01489258 1265.20092773 C94.44507363 1249.74958371 94.02992791 1234.90507027 94.06243896 1219.12028503 C94.06013226 1216.67843528 94.05695433 1214.23658621 94.05298448 1211.79473859 C94.04639175 1206.50238443 94.04596011 1201.2100841 94.0510788 1195.91773224 C94.05867 1188.04742432 94.05476266 1180.17715063 94.04866218 1172.30684291 C94.03814873 1158.246459 94.0390364 1144.18609329 94.04482001 1130.12570766 C94.04985713 1117.81913247 94.05116173 1105.51256394 94.04877472 1093.20598793 C94.04862195 1092.38870011 94.04846918 1091.57141229 94.04831178 1090.72935818 C94.04768907 1087.41143486 94.04705226 1084.09351154 94.04639225 1080.77558822 C94.0402778 1049.66676792 94.04581523 1018.55795918 94.05658605 987.44914066 C94.06607418 959.83514681 94.06522983 932.22117142 94.05566406 904.60717773 C94.04494442 873.5586795 94.04071416 842.5101915 94.04688859 811.46169168 C94.04752999 808.14898924 94.04815567 804.83628681 94.04877472 801.52358437 C94.04893287 800.70795648 94.04909103 799.89232859 94.04925398 799.0519847 C94.0515249 786.7578357 94.04887582 774.46369411 94.04381561 762.16954613 C94.03808713 748.1823178 94.03954784 734.19511048 94.0503771 720.20788475 C94.05623209 712.38846719 94.05665857 704.56909517 94.04908475 696.74967882 C94.04404515 690.89925758 94.04954567 685.04887613 94.0590339 679.19845942 C94.06125813 676.84058368 94.06015375 674.48270179 94.05528232 672.12483003 C94.02314293 655.26853792 94.80484313 639.01876289 98.69140625 622.5390625 C98.94124268 621.47187988 99.1910791 620.40469727 99.44848633 619.30517578 C109.74415787 577.01440871 123.79247315 532.6158693 144.29931641 494.09667969 C145.4411766 491.92698086 146.54126486 489.73840111 147.640625 487.546875 C173.42565888 436.63179519 218.27590601 399.88728753 272.26416016 382.19824219 C278.23745136 380.34379238 284.25857626 378.71595602 290.31640625 377.1640625 C291.43273437 376.85984375 292.5490625 376.555625 293.69921875 376.2421875 C303.51844501 373.72969618 313.61729453 372.74209963 323.65722656 371.49609375 C327.1729764 371.05710919 330.68312531 370.59721367 334.19140625 370.1015625 C335.17882812 369.96621094 336.16625 369.83085938 337.18359375 369.69140625 C337.88742187 369.51738281 338.59125 369.34335937 339.31640625 369.1640625 C341.23831801 365.32023898 340.50120822 360.57938079 340.50390625 356.3515625 C340.51615234 355.35318359 340.52839844 354.35480469 340.54101562 353.32617188 C340.54294922 352.35873047 340.54488281 351.39128906 340.546875 350.39453125 C340.55098389 349.51176514 340.55509277 348.62899902 340.55932617 347.71948242 C340.18199647 343.75012563 339.45943284 341.14643427 336.37963867 338.49951172 C331.827374 336.51490283 327.17215594 335.70314483 322.3046875 334.796875 C321.20683426 334.58523712 320.10898102 334.37359924 318.9778595 334.1555481 C307.06540406 331.88002394 295.1237366 329.76045973 283.17602539 327.67919922 C279.48835946 327.03635233 275.80176122 326.38762516 272.11523438 325.73828125 C261.46215196 323.86883229 250.80420463 322.0255822 240.1171875 320.359375 C239.34698776 320.2349704 238.57678802 320.1105658 237.7832489 319.98239136 C230.99032788 318.9545761 223.87596446 317.93557294 217.45703125 320.87890625 C216.65136719 321.23533203 215.84570312 321.59175781 215.015625 321.95898438 C214.20738281 322.33603516 213.39914062 322.71308594 212.56640625 323.1015625 C201.99390319 327.89145238 193.23254245 329.94737413 181.86328125 326.29296875 C178.10573226 324.6274294 175.02268591 322.26078577 171.8359375 319.6875 C167.33377182 316.96526029 163.60899763 316.8938297 158.5234375 317.95703125 C157.05357204 318.40574324 155.58904423 318.872142 154.12890625 319.3515625 C153.27981689 319.61855957 152.43072754 319.88555664 151.5559082 320.16064453 C148.46921045 321.14162391 145.39264386 322.15076114 142.31640625 323.1640625 C141.09791992 323.56286621 139.87943359 323.96166992 138.62402344 324.37255859 C127.83437868 327.90901635 117.07397074 331.5314152 106.31640625 335.1640625 C105.31371704 335.50230042 104.31102783 335.84053833 103.2779541 336.18902588 C96.79621943 338.37564267 90.31606814 340.56686914 83.83779907 342.76373291 C81.69988183 343.4884968 79.56167791 344.21241562 77.42318726 344.93548584 C74.42432729 345.95008918 71.4268269 346.96860838 68.4296875 347.98828125 C67.06670029 348.44839348 67.06670029 348.44839348 65.67617798 348.9178009 C64.85016083 349.19975815 64.02414368 349.48171539 63.1730957 349.7722168 C62.44894974 350.01804001 61.72480377 350.26386322 60.97871399 350.51713562 C59.30696933 351.03932876 59.30696933 351.03932876 58.31640625 352.1640625 C58.01961744 353.88896379 57.75404671 355.6192814 57.50390625 357.3515625 C56.29993661 364.04701957 54.17546107 368.07972969 48.56640625 372.0390625 C44.40277432 374.42158521 41.03044486 375.14348411 36.31640625 374.1640625 C30.41230617 372.20333168 26.86086158 369.21222616 23.31640625 364.1640625 C21.48216007 358.66132397 21.35131798 353.17144609 23.87890625 347.9140625 C29.74584526 341.29495182 35.04632362 338.05953844 43.5078125 335.484375 C44.53628799 335.1564798 45.56476349 334.82858459 46.62440491 334.49075317 C50.18276096 333.36299161 53.74901128 332.26288012 57.31640625 331.1640625 C59.37686485 330.52232956 61.4366859 329.87857533 63.49651146 329.23481369 C74.19881737 325.89160805 84.9164604 322.59838099 95.63513184 319.30810547 C100.33543795 317.86519168 105.03484807 316.41942669 109.73309517 314.96982193 C111.8815338 314.30811221 114.03116661 313.65040102 116.18089294 312.9928894 C125.98863357 309.97624522 135.66295566 306.64160415 145.31640625 303.1640625 C144.9746088 300.70443177 144.9746088 300.70443177 144.31640625 298.1640625 C142.34882352 296.80386099 142.34882352 296.80386099 140.31640625 296.1640625 C140.06117188 296.76734375 139.8059375 297.370625 139.54296875 297.9921875 C137.43658383 301.72196462 134.14561766 303.42969499 130.31640625 305.1640625 C124.59343382 306.19607392 122.14503288 305.20854761 117.27134705 302.16642761 C111.3053165 298.8405536 106.58726008 298.32479436 99.84985352 298.4387207 C98.21848198 298.43000443 98.21848198 298.43000443 96.55415344 298.42111206 C92.99648085 298.40841035 89.44037649 298.43691462 85.8828125 298.46484375 C83.39704269 298.46120709 80.91127566 298.45450098 78.42552185 298.44487 C71.90859458 298.42586022 65.39220244 298.43978978 58.87530518 298.46337891 C48.42083884 298.49786681 37.96646533 298.49201793 27.51197624 298.4672451 C23.86233884 298.46487109 20.21318959 298.48268678 16.56361389 298.5025177 C14.33480832 298.50276573 12.10600255 298.50236876 9.87719727 298.5012207 C8.86157715 298.51208206 7.84595703 298.52294342 6.79956055 298.53413391 C5.86757339 298.53026672 4.93558624 298.52639954 3.97535706 298.52241516 C3.16740472 298.52559911 2.35945238 298.52878305 1.52701664 298.53206348 C-1.21353722 298.07584265 -2.53418482 296.87286384 -4.68359375 295.1640625 C-9.57626715 294.52995067 -12.59140791 295.79628179 -16.87109375 298.1015625 C-23.03786033 301.38274774 -27.81335236 303.51499518 -34.89453125 301.55078125 C-40.90142488 299.22387877 -45.29269289 295.6777988 -48.68359375 290.1640625 C-51.25954099 283.65958035 -51.05083297 277.08667474 -51.05859375 270.1640625 C-51.08308594 269.01421875 -51.10757813 267.864375 -51.1328125 266.6796875 C-51.15605 259.95630282 -50.86625693 255.54072586 -46.68359375 250.1640625 C-44.6484375 248.421875 -44.6484375 248.421875 -42.62109375 247.2890625 C-41.94949219 246.89976562 -41.27789063 246.51046875 -40.5859375 246.109375 C-34.67459385 243.1719106 -28.11023338 243.26930383 -21.68359375 244.1640625 C-18.39327904 246.03167055 -16.10603569 248.28578472 -13.68359375 251.1640625 C-11.8655229 253.34326757 -11.8655229 253.34326757 -9.37109375 253.6640625 C-8.48421875 253.4990625 -7.59734375 253.3340625 -6.68359375 253.1640625 C-5.69280067 251.68554306 -5.69280067 251.68554306 -4.68199158 250.17715454 C-3.00074421 248.08814114 -2.10278828 247.26968218 0.52331352 246.60801315 C3.35664339 246.41324765 6.1385499 246.40258807 8.97827148 246.45458984 C10.05201019 246.45038528 11.1257489 246.44618073 12.23202515 246.44184875 C15.7802555 246.43414061 19.3269282 246.46773412 22.875 246.5 C25.34213092 246.4989063 27.80926234 246.49459923 30.27638245 246.48721313 C36.77292092 246.4737947 43.26890708 246.49265468 49.76538086 246.52166748 C60.16020575 246.56700208 70.55473251 246.58265666 80.94963264 246.56212234 C84.5804427 246.56249542 88.21047941 246.58827412 91.84117126 246.61581421 C94.06916293 246.61649912 96.29715519 246.61619605 98.52514648 246.61474609 C99.53365158 246.62920273 100.54215668 246.64365936 101.58122253 246.65855408 C109.012711 246.61689093 112.27719898 245.12112903 117.62890625 239.9140625 C120.9218978 237.76978893 123.04081444 237.48584418 126.91796875 237.62109375 C129.81896049 238.27783292 131.54920894 239.47527812 133.94140625 241.2265625 C136.97901267 243.43093661 138.10134096 244.13810634 141.94140625 244.6015625 C146.30198162 242.7442804 147.81073895 240.16244041 150.52734375 236.38671875 C156.68465869 228.73712879 168.43180481 228.06001278 177.5234375 226.67578125 C178.48636719 226.52753906 179.44929687 226.37929688 180.44140625 226.2265625 C181.71371094 226.05833984 181.71371094 226.05833984 183.01171875 225.88671875 C186.08795145 224.92213731 187.37991919 223.73446684 189.31640625 221.1640625 C190.01679813 218.27685087 190.01679813 218.27685087 190.06640625 215.1015625 C190.11796875 213.95171875 190.16953125 212.801875 190.22265625 211.6171875 C190.25359375 210.47765625 190.28453125 209.338125 190.31640625 208.1640625 C190.36796875 207.16890625 190.41953125 206.17375 190.47265625 205.1484375 C190.74015835 197.16795812 189.39778498 191.49789637 184.44140625 185.1640625 C175.64853782 175.84973561 162.53172869 170.53760847 151.3840332 164.57958984 C140.90835895 158.97578542 130.587297 153.13337289 120.31640625 147.1640625 C118.90609131 146.34470215 118.90609131 146.34470215 117.46728516 145.50878906 C111.4529171 142.01129787 105.44503423 138.50278757 99.43945312 134.99023438 C94.04618128 131.8365701 88.65004772 128.6878132 83.25390625 125.5390625 C82.26092529 124.95914551 81.26794434 124.37922852 80.24487305 123.78173828 C78.41169717 122.71182072 76.57616069 121.6459329 74.73779297 120.58496094 C73.22813509 119.69907579 71.73190401 118.78937091 70.25830078 117.84472656 C67.70031306 116.23401412 65.77258819 115.19158479 62.7265625 115.0078125 C59.14438868 116.726327 57.13528649 119.59458704 54.75390625 122.6640625 C42.28641961 137.90382257 24.9278562 147.49891674 5.31640625 150.1640625 C-14.40865907 151.58631898 -33.42999743 145.66240133 -48.69140625 132.90234375 C-49.34882812 132.32871094 -50.00625 131.75507813 -50.68359375 131.1640625 C-51.65941406 130.39707031 -52.63523437 129.63007813 -53.640625 128.83984375 C-66.77858837 117.88261756 -72.72988101 99.53721261 -74.68359375 83.1640625 C-75.52289979 70.88596694 -74.42528563 59.87151654 -70.68359375 48.1640625 C-70.26787109 46.79894531 -70.26787109 46.79894531 -69.84375 45.40625 C-63.61171097 27.54298605 -48.95874024 14.72992127 -32.4296875 6.5546875 C-21.70685199 1.89853926 -11.57972543 0.70793081 0 0 Z " fill="#F3F0E8" transform="translate(571.68359375,201.8359375)"/>
  <path d="M0 0 C0.85335937 0.04108887 1.70671875 0.08217773 2.5859375 0.12451172 C38.49003895 2.07014603 71.87518302 15.01900163 98 40 C98.68449219 40.62132812 99.36898438 41.24265625 100.07421875 41.8828125 C114.60276608 55.52651706 124.09415417 74.92439585 129 94 C129.21688477 94.80695313 129.43376953 95.61390625 129.65722656 96.4453125 C135.24088141 117.49200024 138.25437563 139.08081764 141.64564514 160.56069946 C142.65833345 166.94577948 143.73975845 173.31434442 144.88249207 179.67727661 C146.53413747 188.91181819 148.00424417 198.17669984 149.5 207.4375 C149.94621789 210.19485404 150.39279009 212.95215008 150.83976746 215.7093811 C151.13219005 217.51380428 151.42411761 219.31830775 151.7155304 221.12289429 C152.41863873 225.46663002 153.1336694 229.80775595 153.87573242 234.14501953 C154.08383545 235.36717918 154.08383545 235.36717918 154.29614258 236.61402893 C154.55576214 238.13321027 154.81815974 239.65192081 155.08398438 241.17002869 C156.89580626 251.78803631 156.89580626 251.78803631 156 257 C153.367929 259.632071 152.21862848 259.25133077 148.5460825 259.25447559 C147.38049637 259.26030779 146.21491025 259.26613998 145.01400334 259.27214891 C143.0764463 259.26647992 143.0764463 259.26647992 141.0997467 259.26069641 C139.72247324 259.26371437 138.34520144 259.26760206 136.96793264 259.27228898 C133.17008889 259.28262362 129.37233897 259.28037336 125.57448733 259.27610838 C121.48375517 259.27365102 117.39304618 259.28264296 113.30232239 259.29014587 C105.28309922 259.30292256 97.26390948 259.30468288 89.24467785 259.30234561 C82.72920503 259.3005656 76.2137424 259.30230526 69.6982708 259.30657005 C68.77243729 259.30716524 67.84660379 259.30776043 66.89271472 259.30837366 C65.01213698 259.30958535 63.13155924 259.31079949 61.2509815 259.31201603 C43.59820433 259.32290301 25.94544623 259.32072361 8.29266798 259.31463119 C-7.87151837 259.30946096 -24.03564447 259.32071821 -40.1998189 259.33972941 C-56.78057438 259.35908169 -73.36130131 259.3673684 -89.94206816 259.36360615 C-99.2575663 259.36169014 -108.57301316 259.36422047 -117.88850212 259.37832069 C-125.81877285 259.39020229 -133.74896073 259.39167577 -141.67923253 259.37953053 C-145.72817973 259.37361907 -149.77697515 259.37260449 -153.82591248 259.38453293 C-157.52878368 259.39531538 -161.23137498 259.39238053 -164.93423266 259.37827124 C-166.91624722 259.37433407 -168.89827387 259.38523347 -170.88025993 259.39656812 C-172.0484538 259.38936158 -173.21664767 259.38215503 -174.42024136 259.37473011 C-175.93882548 259.37481263 -175.93882548 259.37481263 -177.48808807 259.37489682 C-180 259 -180 259 -181.83921248 257.61515397 C-183.48947795 255.31892596 -183.17287814 253.94732639 -182.82641602 251.16943359 C-182.70702667 250.18593933 -182.58763733 249.20244507 -182.46463013 248.18914795 C-181.64187313 242.54187361 -180.74401759 236.91354891 -179.77734375 231.2890625 C-179.55369036 229.97043281 -179.33037129 228.65174639 -179.10736084 227.33300781 C-178.51244855 223.82225639 -177.91208333 220.31245895 -177.31039047 216.80286407 C-176.8089706 213.87432499 -176.31071511 210.94525068 -175.81232166 208.0161953 C-172.53116956 188.7394215 -169.18046876 169.47549789 -165.7175293 150.23046875 C-164.20638985 141.82724412 -162.72077009 133.42180566 -161.31640625 125 C-161.18211716 124.19871674 -161.04782806 123.39743347 -160.9094696 122.5718689 C-160.28969275 118.87171922 -159.6761975 115.1708074 -159.0769043 111.46728516 C-156.93011059 98.59292409 -154.18127359 86.21178181 -148.375 74.4375 C-147.9404248 73.54546875 -147.50584961 72.6534375 -147.05810547 71.734375 C-131.91196273 41.47483795 -104.37416969 18.75208126 -72.8125 7.1875 C-50.19248921 0.16587165 -23.5280327 -1.16234537 0 0 Z " fill="#F3F0E8" transform="translate(1013,1124)"/>
  <path d="M0 0 C86.46 0 172.92 0 262 0 C263.25641983 11.30777846 264.29029944 22.64479108 265 34 C176.89 34 88.78 34 -2 34 C-2 21 -2 21 0 0 Z " fill="#F3F0E8" transform="translate(872,1277)"/>
  <path d="M0 0 C91.41 0 182.82 0 277 0 C279 20 279 20 279 30 C185.94 30 92.88 30 -3 30 C-1 4 -1 4 0 0 Z " fill="#F3F0E8" transform="translate(865,1328)"/>
  <path d="M0 0 C0.82838379 -0.01142029 1.65676758 -0.02284058 2.51025391 -0.03460693 C3.4105986 -0.03684265 4.3109433 -0.03907837 5.23857117 -0.04138184 C6.19351471 -0.05131165 7.14845825 -0.06124146 8.13233948 -0.07147217 C11.2910704 -0.10067876 14.44960046 -0.11431284 17.60844421 -0.12536621 C19.80556239 -0.136872 22.00268051 -0.14838744 24.19979858 -0.15991211 C28.80729609 -0.18092153 33.41472391 -0.19261379 38.02226257 -0.19958496 C43.92057964 -0.21055366 49.81797311 -0.25860943 55.71600056 -0.31552887 C60.25511347 -0.35281298 64.79400457 -0.36319441 69.33325768 -0.36625671 C71.50736225 -0.3723037 73.68146319 -0.38834065 75.85541725 -0.41462708 C78.9005127 -0.44881915 81.94336056 -0.44497401 84.98857117 -0.43200684 C86.32997917 -0.45965118 86.32997917 -0.45965118 87.69848633 -0.487854 C93.37699505 -0.41227358 96.37032894 0.8026972 100.52395916 4.7004776 C103.01605113 7.76856665 102.94167551 10.79257585 102.96879578 14.57507324 C102.97840332 15.65662186 102.98801086 16.73817047 102.99790955 17.85249329 C103.00215942 19.02124496 103.0064093 20.18999664 103.01078796 21.39416504 C103.01648804 22.59647263 103.02218811 23.79878021 103.02806091 25.03752136 C103.03751372 27.5837211 103.044046 30.12993309 103.04789734 32.67614746 C103.05759818 36.56739712 103.08861796 40.45811761 103.12016296 44.34924316 C103.12669351 46.82254732 103.13194378 49.29585525 103.13578796 51.76916504 C103.14813477 52.93184402 103.16048157 54.09452301 103.17320251 55.29243469 C103.14429348 65.80188918 103.14429348 65.80188918 99.80766296 70.28088379 C95.21253171 73.99611783 90.79426253 73.71901136 85.15556335 73.70080566 C83.70588921 73.71350998 83.70588921 73.71350998 82.22692871 73.72647095 C79.03625789 73.74984571 75.84606914 73.750863 72.65531921 73.74963379 C70.43481249 73.75673483 68.2143076 73.76443375 65.99380493 73.77270508 C61.34096678 73.78615084 56.68829831 73.78771807 52.03544617 73.78186035 C46.07548462 73.77596292 40.11633728 73.80655794 34.15653324 73.84697723 C29.57112243 73.87283643 24.98590817 73.87573325 20.40043449 73.87208557 C18.20320527 73.87377834 16.00596711 73.88343583 13.80880928 73.90122986 C10.7350386 73.9233847 7.66292251 73.9137347 4.5891571 73.89611816 C3.68351013 73.90938141 2.77786316 73.92264465 1.84477234 73.93630981 C-2.47242581 73.87886863 -5.31401809 73.63342381 -8.74118042 70.86743164 C-12.1775044 67.24130006 -12.32259808 65.60104996 -12.36933899 60.71716309 C-12.38217422 59.55222824 -12.39500946 58.3872934 -12.40823364 57.1870575 C-12.41562057 55.92251236 -12.42300751 54.65796722 -12.43061829 53.35510254 C-12.43869003 52.06022415 -12.44676178 50.76534576 -12.45507812 49.43122864 C-12.47010525 46.68653493 -12.47994294 43.94186712 -12.48750305 41.19714355 C-12.49856027 37.68642611 -12.53295152 34.17634378 -12.57267475 30.66585064 C-12.60515393 27.31229342 -12.60962098 23.9588049 -12.61811829 20.60510254 C-12.63562637 19.3466301 -12.65313446 18.08815765 -12.6711731 16.79154968 C-12.66824753 15.61715836 -12.66532196 14.44276703 -12.66230774 13.23278809 C-12.66817398 12.20179489 -12.67404022 11.1708017 -12.68008423 10.10856628 C-12.05648306 6.49327921 -10.7486927 4.8745139 -8.19233704 2.28088379 C-5.36854814 0.5908282 -3.27551786 0.02716804 0 0 Z " fill="#F3F0E8" transform="translate(1158.1923370361328,1005.7191162109375)"/>
  <path d="M0 0 C0.97766327 -0.00525696 1.95532654 -0.01051392 2.96261597 -0.01593018 C6.19602411 -0.0291392 9.42894032 -0.02038801 12.66235352 -0.01025391 C14.90910436 -0.01227454 17.15585456 -0.01518589 19.40260315 -0.01895142 C24.11270387 -0.02337614 28.82263395 -0.01693941 33.53271484 -0.00292969 C39.56996736 0.01415227 45.60681949 0.00432798 51.64405727 -0.01364708 C56.28431716 -0.0244892 60.9244822 -0.02103639 65.56474495 -0.0132637 C67.79069122 -0.01126238 70.01664611 -0.01371858 72.24258232 -0.02070236 C75.35466178 -0.02832259 78.46609375 -0.01670365 81.578125 0 C82.49828903 -0.00607269 83.41845306 -0.01214539 84.36650085 -0.0184021 C89.141926 0.02907295 92.57739756 0.13609491 96.35375977 3.38818359 C98.99511703 6.86652435 99.73057667 9.37944416 99.74194336 13.70996094 C99.75139984 14.74808929 99.76085632 15.78621765 99.77059937 16.85580444 C99.76452667 17.96734894 99.75845398 19.07889343 99.75219727 20.22412109 C99.75506744 21.37683502 99.75793762 22.52954895 99.76089478 23.7171936 C99.76293426 26.15310152 99.75741254 28.58902585 99.74487305 31.02490234 C99.72884795 34.74272566 99.74471154 38.45945699 99.76391602 42.17724609 C99.76193299 44.54704015 99.75808809 46.91683353 99.75219727 49.28662109 C99.75826996 50.39411713 99.76434265 51.50161316 99.77059937 52.64266968 C99.70884405 59.46331111 99.25048477 64.76727733 94.85375977 70.26318359 C92.13025541 72.30581186 89.55132904 72.51589455 86.27494812 72.53535461 C85.44649384 72.54250992 84.61803955 72.54966522 83.76448059 72.55703735 C82.40621407 72.56107071 82.40621407 72.56107071 81.02050781 72.56518555 C80.064104 72.57175674 79.1077002 72.57832794 78.12231445 72.58509827 C74.95336836 72.60482914 71.78446963 72.61649282 68.61547852 72.62646484 C67.53349497 72.63054037 66.45151142 72.6346159 65.33674049 72.63881493 C59.61105159 72.65967377 53.88538665 72.67397687 48.15966797 72.68334961 C42.24464347 72.69441959 36.32999459 72.7288271 30.41510296 72.76852131 C25.86747027 72.79465809 21.31992753 72.8030388 16.77222633 72.80663109 C14.59173862 72.81150385 12.41125509 72.82313735 10.23084068 72.84166908 C7.17865529 72.86599969 4.12744787 72.86510649 1.07519531 72.8581543 C0.17575699 72.87096436 -0.72368134 72.88377441 -1.65037537 72.89697266 C-7.11303315 72.85164935 -10.38591353 72.14625032 -14.64624023 68.38818359 C-16.84867118 65.29777106 -16.90315686 62.61131087 -16.92089844 58.87280273 C-16.93043045 57.76808121 -16.93996246 56.66335968 -16.94978333 55.52516174 C-16.94887192 54.33656052 -16.94796051 53.14795929 -16.94702148 51.92333984 C-16.95130661 50.69787949 -16.95559174 49.47241913 -16.96000671 48.20982361 C-16.96574954 45.61832294 -16.96625063 43.02680614 -16.96191406 40.43530273 C-16.95875518 36.46944693 -16.9822115 32.50433772 -17.00756836 28.53857422 C-17.00984144 26.02099704 -17.01054481 23.50341784 -17.00952148 20.98583984 C-17.01873123 19.79926285 -17.02794098 18.61268585 -17.03742981 17.39015198 C-17.03120102 16.28227829 -17.02497223 15.1744046 -17.01855469 14.03295898 C-17.01918411 13.06129288 -17.01981354 12.08962677 -17.02046204 11.08851624 C-16.4612131 7.05305343 -14.72337154 4.60373046 -12.06163025 1.59994507 C-8.17143321 -0.35170285 -4.29089103 -0.0282559 0 0 Z " fill="#F3F0E8" transform="translate(752.646240234375,1005.61181640625)"/>
  <path d="M0 0 C77.22 0 154.44 0 234 0 C236 13 236 13 236 25 C157.46 25 78.92 25 -2 25 C-1 5 -1 5 0 0 Z " fill="#F3F0E8" transform="translate(886,1229)"/>
  <path d="M0 0 C7.31482096 6.01440834 13.22109221 12.77765506 14.8125 22.3125 C15.79658785 33.57327671 14.12322318 43.07585329 7.125 52.1875 C-0.15343317 59.84014567 -9.18423866 63.21993008 -19.5 63.6875 C-29.44902281 63.45356724 -38.25405955 59.43478903 -45.1875 52.3125 C-52.29261342 42.55440432 -53.99545821 34.2081308 -53.1875 22.3125 C-51.43564587 13.24633521 -46.18541227 6.1702229 -39.1875 0.3125 C-26.26884583 -8.04967494 -13.24445594 -7.01177079 0 0 Z " fill="#F3F0E8" transform="translate(1019.1875,1007.6875)"/>
  <path d="M0 0 C3 0.125 3 0.125 4 1.125 C4.0985198 2.59489246 4.12739166 4.06950897 4.12863445 5.54269886 C4.1318589 6.5027731 4.13508335 7.46284734 4.1384055 8.45201474 C4.1368569 9.51946807 4.1353083 10.5869214 4.13371277 11.6867218 C4.13597833 12.81121504 4.13824388 13.93570829 4.14057809 15.09427708 C4.14695179 18.89529973 4.14608652 22.69628703 4.14526367 26.49731445 C4.14770807 29.21061845 4.15162718 31.92391992 4.15544128 34.63722229 C4.16377058 41.26861529 4.16649736 47.89999941 4.16705366 54.5313972 C4.1675288 59.93445293 4.16958351 65.33750573 4.17275429 70.74056053 C4.18157567 86.08732327 4.18617264 101.43407901 4.18542381 116.78084431 C4.18538386 117.60928141 4.1853439 118.43771851 4.18530273 119.29125977 C4.18526185 120.12072171 4.18522097 120.95018365 4.18517885 121.8047808 C4.18477443 135.1779899 4.1942883 148.55117056 4.2084411 161.92437146 C4.22288592 175.68357132 4.22970651 189.44275741 4.22884732 203.20196503 C4.22851759 210.91474395 4.23116365 218.62749325 4.24202538 226.34026527 C4.25123868 232.92486198 4.25321952 239.50941574 4.24651595 246.09401617 C4.24330109 249.44125577 4.24414188 252.78834797 4.2518692 256.1355896 C4.30496281 280.76240074 2.94675948 305.17701894 -0.5625 329.5625 C-0.75182602 330.90238983 -0.75182602 330.90238983 -0.94497681 332.26934814 C-3.8955883 352.99262623 -8.02608163 373.44616266 -12.32971191 393.92364502 C-13.5730532 399.86195261 -14.79679175 405.8043194 -16.0234375 411.74609375 C-18.66744449 424.54216868 -21.32830405 437.33467954 -24 450.125 C-24.33 450.125 -24.66 450.125 -25 450.125 C-25.21065894 442.23309192 -24.64236856 434.68108927 -23.5 426.875 C-23.32911865 425.68680664 -23.1582373 424.49861328 -22.98217773 423.27441406 C-21.26088619 411.88417495 -18.91216065 400.64137353 -16.53460693 389.37307739 C-11.86340854 367.1928605 -7.85718571 344.73673751 -6 322.125 C-5.91842903 321.24980146 -5.83685806 320.37460293 -5.75281525 319.47288322 C-4.67676296 306.18062705 -4.83161355 292.8548319 -4.81405044 279.52851987 C-4.80803735 275.78638853 -4.79638675 272.04427403 -4.78541565 268.30215454 C-4.76716657 261.83466162 -4.75228203 255.36716822 -4.73963928 248.89966202 C-4.72126602 239.54789435 -4.69660619 230.19615102 -4.67026538 220.84440278 C-4.62759073 205.66662138 -4.58844151 190.48883333 -4.55224609 175.31103516 C-4.55008329 174.40465187 -4.54792049 173.49826858 -4.54569215 172.56441914 C-4.52595499 164.27954418 -4.50645069 155.99466867 -4.48697662 147.70979309 C-4.47396679 142.17778508 -4.4608928 136.64577723 -4.44775391 131.11376953 C-4.4445156 129.74949794 -4.4445156 129.74949794 -4.44121188 128.35766532 C-4.40515182 113.21613941 -4.36521412 98.07462617 -4.32245111 82.93311775 C-4.29627173 73.59721997 -4.27361854 64.26132609 -4.25546753 54.92540918 C-4.24283664 48.54287835 -4.2267244 42.16036261 -4.20781839 35.7778473 C-4.19702658 32.09163359 -4.1879201 28.40543456 -4.18312263 24.71920776 C-4.17790515 20.73320378 -4.16509614 16.74724567 -4.15148926 12.76126099 C-4.15119327 11.58377545 -4.15089728 10.4062899 -4.15059233 9.19312298 C-4.14573458 8.13446337 -4.14087684 7.07580376 -4.13587189 5.98506355 C-4.13375592 5.06401899 -4.13163995 4.14297444 -4.12945986 3.19401944 C-3.921292 -0.13290637 -3.39972166 0.14165507 0 0 Z " fill="#F3F0E8" transform="translate(939,602.875)"/>
  <path d="M0 0 C0.97766327 -0.00525696 1.95532654 -0.01051392 2.96261597 -0.01593018 C6.19602411 -0.0291392 9.42894032 -0.02038801 12.66235352 -0.01025391 C14.90910436 -0.01227454 17.15585456 -0.01518589 19.40260315 -0.01895142 C24.11270387 -0.02337614 28.82263395 -0.01693941 33.53271484 -0.00292969 C39.56996736 0.01415227 45.60681949 0.00432798 51.64405727 -0.01364708 C56.28431716 -0.0244892 60.9244822 -0.02103639 65.56474495 -0.0132637 C67.79069122 -0.01126238 70.01664611 -0.01371858 72.24258232 -0.02070236 C75.35466178 -0.02832259 78.46609375 -0.01670365 81.578125 0 C82.49828903 -0.00607269 83.41845306 -0.01214539 84.36650085 -0.0184021 C89.141926 0.02907295 92.57739756 0.13609491 96.35375977 3.38818359 C98.99511703 6.86652435 99.73057667 9.37944416 99.74194336 13.70996094 C99.75139984 14.74808929 99.76085632 15.78621765 99.77059937 16.85580444 C99.76452667 17.96734894 99.75845398 19.07889343 99.75219727 20.22412109 C99.75506744 21.37683502 99.75793762 22.52954895 99.76089478 23.7171936 C99.76293426 26.15310152 99.75741254 28.58902585 99.74487305 31.02490234 C99.72884795 34.74272566 99.74471154 38.45945699 99.76391602 42.17724609 C99.76193299 44.54704015 99.75808809 46.91683353 99.75219727 49.28662109 C99.75826996 50.39411713 99.76434265 51.50161316 99.77059937 52.64266968 C99.70884405 59.46331111 99.25048477 64.76727733 94.85375977 70.26318359 C92.13025541 72.30581186 89.55132904 72.51589455 86.27494812 72.53535461 C85.44649384 72.54250992 84.61803955 72.54966522 83.76448059 72.55703735 C82.40621407 72.56107071 82.40621407 72.56107071 81.02050781 72.56518555 C80.064104 72.57175674 79.1077002 72.57832794 78.12231445 72.58509827 C74.95336836 72.60482914 71.78446963 72.61649282 68.61547852 72.62646484 C67.53349497 72.63054037 66.45151142 72.6346159 65.33674049 72.63881493 C59.61105159 72.65967377 53.88538665 72.67397687 48.15966797 72.68334961 C42.24464347 72.69441959 36.32999459 72.7288271 30.41510296 72.76852131 C25.86747027 72.79465809 21.31992753 72.8030388 16.77222633 72.80663109 C14.59173862 72.81150385 12.41125509 72.82313735 10.23084068 72.84166908 C7.17865529 72.86599969 4.12744787 72.86510649 1.07519531 72.8581543 C0.17575699 72.87096436 -0.72368134 72.88377441 -1.65037537 72.89697266 C-7.11303315 72.85164935 -10.38591353 72.14625032 -14.64624023 68.38818359 C-16.84867118 65.29777106 -16.90315686 62.61131087 -16.92089844 58.87280273 C-16.93043045 57.76808121 -16.93996246 56.66335968 -16.94978333 55.52516174 C-16.94887192 54.33656052 -16.94796051 53.14795929 -16.94702148 51.92333984 C-16.95130661 50.69787949 -16.95559174 49.47241913 -16.96000671 48.20982361 C-16.96574954 45.61832294 -16.96625063 43.02680614 -16.96191406 40.43530273 C-16.95875518 36.46944693 -16.9822115 32.50433772 -17.00756836 28.53857422 C-17.00984144 26.02099704 -17.01054481 23.50341784 -17.00952148 20.98583984 C-17.01873123 19.79926285 -17.02794098 18.61268585 -17.03742981 17.39015198 C-17.03120102 16.28227829 -17.02497223 15.1744046 -17.01855469 14.03295898 C-17.01918411 13.06129288 -17.01981354 12.08962677 -17.02046204 11.08851624 C-16.4612131 7.05305343 -14.72337154 4.60373046 -12.06163025 1.59994507 C-8.17143321 -0.35170285 -4.29089103 -0.0282559 0 0 Z M-4.43383789 12.46826172 C-6.18735383 16.69138912 -6.07527721 20.57658756 -6.04467773 25.10693359 C-6.04754791 26.04243042 -6.05041809 26.97792725 -6.05337524 27.94177246 C-6.05541239 29.91528938 -6.04990704 31.88882665 -6.03735352 33.86230469 C-6.02129499 36.87790199 -6.03721419 39.89215908 -6.05639648 42.90771484 C-6.05441399 44.82829071 -6.05057019 46.74886574 -6.04467773 48.66943359 C-6.05075043 49.5685144 -6.05682312 50.46759521 -6.06307983 51.3939209 C-5.99783233 57.21991832 -5.312273 60.77287441 -1.00935364 64.993927 C2.2425091 66.9125531 5.22003849 66.80787308 8.88867188 66.77636719 C10.01866859 66.78425262 10.01866859 66.78425262 11.17149353 66.79229736 C13.65824201 66.80548572 16.14434867 66.79676281 18.63110352 66.78662109 C20.36218895 66.78864238 22.09327356 66.79155428 23.82435608 66.7953186 C27.45167145 66.79974055 31.0787651 66.79331592 34.70605469 66.77929688 C39.35106306 66.76221777 43.99555091 66.77203877 48.64054012 66.79001427 C52.21537684 66.80086655 55.79009064 66.79739892 59.36493111 66.78963089 C61.07731755 66.78763221 62.78971522 66.79007648 64.50208855 66.79706955 C66.89817635 66.80470649 69.29342747 66.79304853 71.68945312 66.77636719 C72.39455017 66.78243988 73.09964722 66.78851257 73.82611084 66.79476929 C78.16190924 66.73897563 80.9525881 66.12331193 84.35375977 63.38818359 C86.26894935 60.56446464 86.61370872 58.27048886 86.66015625 54.8984375 C86.67614365 54.01717194 86.69213104 53.13590637 86.70860291 52.22793579 C86.71664696 50.81065689 86.71664696 50.81065689 86.72485352 49.36474609 C86.73388199 48.3858139 86.74291046 47.40688171 86.75221252 46.39828491 C86.76670897 44.32886816 86.77560026 42.25940563 86.77929688 40.18994141 C86.79119164 37.03127476 86.84038239 33.87456299 86.89086914 30.71630859 C86.90033396 28.70329727 86.90756871 26.69027398 86.91235352 24.67724609 C86.93188583 23.73644196 86.95141815 22.79563782 86.97154236 21.82632446 C86.94112862 17.38480939 86.79968648 14.34088266 83.94384766 10.80761719 C79.99906817 7.12274917 77.30839139 7.23524997 72.13769531 7.22705078 C71.39440979 7.22208588 70.65112427 7.21712097 69.88531494 7.21200562 C67.42036012 7.19737191 64.95546968 7.19057953 62.49047852 7.18505859 C60.77895607 7.17930754 59.06743365 7.1735498 57.35591125 7.16778564 C53.76380106 7.15727181 50.17171327 7.15143185 46.57958984 7.14794922 C41.9794142 7.14246774 37.37953504 7.11844886 32.77945232 7.08997726 C29.24238728 7.07134058 25.70539345 7.06614471 22.16828346 7.06461334 C20.4726277 7.06158793 18.77697317 7.05356314 17.08136559 7.04042816 C14.70668474 7.02334801 12.33272539 7.0252526 9.95800781 7.03173828 C9.25911942 7.0225235 8.56023102 7.01330872 7.84016418 7.0038147 C2.42322762 7.05009327 -0.89964025 8.35581104 -4.43383789 12.46826172 Z " fill="#F3F0E8" transform="translate(752.646240234375,1005.61181640625)"/>
  <path d="M0 0 C0.82838379 -0.01142029 1.65676758 -0.02284058 2.51025391 -0.03460693 C3.4105986 -0.03684265 4.3109433 -0.03907837 5.23857117 -0.04138184 C6.19351471 -0.05131165 7.14845825 -0.06124146 8.13233948 -0.07147217 C11.2910704 -0.10067876 14.44960046 -0.11431284 17.60844421 -0.12536621 C19.80556239 -0.136872 22.00268051 -0.14838744 24.19979858 -0.15991211 C28.80729609 -0.18092153 33.41472391 -0.19261379 38.02226257 -0.19958496 C43.92057964 -0.21055366 49.81797311 -0.25860943 55.71600056 -0.31552887 C60.25511347 -0.35281298 64.79400457 -0.36319441 69.33325768 -0.36625671 C71.50736225 -0.3723037 73.68146319 -0.38834065 75.85541725 -0.41462708 C78.9005127 -0.44881915 81.94336056 -0.44497401 84.98857117 -0.43200684 C86.32997917 -0.45965118 86.32997917 -0.45965118 87.69848633 -0.487854 C93.37699505 -0.41227358 96.37032894 0.8026972 100.52395916 4.7004776 C103.01605113 7.76856665 102.94167551 10.79257585 102.96879578 14.57507324 C102.97840332 15.65662186 102.98801086 16.73817047 102.99790955 17.85249329 C103.00215942 19.02124496 103.0064093 20.18999664 103.01078796 21.39416504 C103.01648804 22.59647263 103.02218811 23.79878021 103.02806091 25.03752136 C103.03751372 27.5837211 103.044046 30.12993309 103.04789734 32.67614746 C103.05759818 36.56739712 103.08861796 40.45811761 103.12016296 44.34924316 C103.12669351 46.82254732 103.13194378 49.29585525 103.13578796 51.76916504 C103.14813477 52.93184402 103.16048157 54.09452301 103.17320251 55.29243469 C103.14429348 65.80188918 103.14429348 65.80188918 99.80766296 70.28088379 C95.21253171 73.99611783 90.79426253 73.71901136 85.15556335 73.70080566 C83.70588921 73.71350998 83.70588921 73.71350998 82.22692871 73.72647095 C79.03625789 73.74984571 75.84606914 73.750863 72.65531921 73.74963379 C70.43481249 73.75673483 68.2143076 73.76443375 65.99380493 73.77270508 C61.34096678 73.78615084 56.68829831 73.78771807 52.03544617 73.78186035 C46.07548462 73.77596292 40.11633728 73.80655794 34.15653324 73.84697723 C29.57112243 73.87283643 24.98590817 73.87573325 20.40043449 73.87208557 C18.20320527 73.87377834 16.00596711 73.88343583 13.80880928 73.90122986 C10.7350386 73.9233847 7.66292251 73.9137347 4.5891571 73.89611816 C3.68351013 73.90938141 2.77786316 73.92264465 1.84477234 73.93630981 C-2.47242581 73.87886863 -5.31401809 73.63342381 -8.74118042 70.86743164 C-12.1775044 67.24130006 -12.32259808 65.60104996 -12.36933899 60.71716309 C-12.38217422 59.55222824 -12.39500946 58.3872934 -12.40823364 57.1870575 C-12.41562057 55.92251236 -12.42300751 54.65796722 -12.43061829 53.35510254 C-12.43869003 52.06022415 -12.44676178 50.76534576 -12.45507812 49.43122864 C-12.47010525 46.68653493 -12.47994294 43.94186712 -12.48750305 41.19714355 C-12.49856027 37.68642611 -12.53295152 34.17634378 -12.57267475 30.66585064 C-12.60515393 27.31229342 -12.60962098 23.9588049 -12.61811829 20.60510254 C-12.63562637 19.3466301 -12.65313446 18.08815765 -12.6711731 16.79154968 C-12.66824753 15.61715836 -12.66532196 14.44276703 -12.66230774 13.23278809 C-12.66817398 12.20179489 -12.67404022 11.1708017 -12.68008423 10.10856628 C-12.05648306 6.49327921 -10.7486927 4.8745139 -8.19233704 2.28088379 C-5.36854814 0.5908282 -3.27551786 0.02716804 0 0 Z M0.80766296 10.28088379 C-1.13501569 13.13502461 -1.45298048 15.46730155 -1.49873352 18.8782959 C-1.51472092 19.78280991 -1.53070831 20.68732391 -1.54718018 21.61924744 C-1.55254288 22.58911087 -1.55790558 23.5589743 -1.56343079 24.55822754 C-1.57245926 25.56172745 -1.58148773 26.56522736 -1.59078979 27.59913635 C-1.60528622 29.71982848 -1.61417752 31.84056526 -1.61787415 33.96130371 C-1.62978186 37.20336183 -1.67898398 40.44352348 -1.72944641 43.68518066 C-1.73890958 45.74702034 -1.74614512 47.8088717 -1.75093079 49.87072754 C-1.7704631 50.83856674 -1.78999542 51.80640594 -1.81011963 52.80357361 C-1.77876615 57.48599551 -1.74179326 59.57679385 1.21757507 63.36901855 C5.32493429 66.40085285 8.22917634 66.44448014 13.19145203 66.47375488 C13.9526384 66.48193237 14.71382477 66.49010986 15.49807739 66.49853516 C18.02313956 66.5233951 20.54814543 66.53990784 23.07328796 66.55432129 C23.93553734 66.55964497 24.79778671 66.56496864 25.68616486 66.57045364 C30.25123201 66.59718958 34.81627179 66.61656185 39.38139343 66.63098145 C44.09376289 66.64761823 48.80543147 66.69238616 53.51753616 66.74335289 C57.14299814 66.7770344 60.76829408 66.7885599 64.39389801 66.79420853 C66.13063149 66.80091999 67.86735408 66.81613946 69.60393524 66.84009933 C72.03863315 66.87177079 74.47144539 66.87178535 76.90629578 66.86437988 C77.62029037 66.88078522 78.33428497 66.89719055 79.06991577 66.91409302 C82.87541711 66.86685062 85.30043537 66.25876223 88.23899841 63.93191528 C91.421327 60.64754197 91.92835419 58.46805388 91.96879578 54.0723877 C91.97840332 53.22786041 91.98801086 52.38333313 91.99790955 51.51321411 C92.00215942 50.60381073 92.0064093 49.69440735 92.01078796 48.75744629 C92.01648804 47.81911957 92.02218811 46.88079285 92.02806091 45.91403198 C92.0375069 43.92857998 92.0440433 41.94311233 92.04789734 39.9576416 C92.05760344 36.92448515 92.08863083 33.89200623 92.12016296 30.85900879 C92.1266932 28.92932531 92.13194359 26.99963699 92.13578796 25.06994629 C92.15430817 23.71191391 92.15430817 23.71191391 92.17320251 22.32644653 C92.15627156 17.52640628 92.08349349 14.0753131 88.80766296 10.28088379 C84.69243479 7.18484049 81.15129414 6.84960968 76.15922546 6.8927002 C75.40574829 6.88744324 74.65227112 6.88218628 73.8759613 6.87677002 C71.39464864 6.86360681 68.91398173 6.87229475 66.43266296 6.88244629 C64.70300677 6.88042449 62.9733514 6.87751217 61.24369812 6.87374878 C57.62235888 6.86933042 54.00124195 6.8757407 50.37992859 6.88977051 C45.74279586 6.90686218 41.10618406 6.89701837 36.46907043 6.87905312 C32.89852488 6.86820205 29.32810241 6.87166768 25.7575531 6.87943649 C24.04795774 6.88143484 22.33835114 6.87899205 20.62876892 6.87199783 C18.23757917 6.86436147 15.84722792 6.87601746 13.45610046 6.8927002 C12.40081146 6.88359116 12.40081146 6.88359116 11.32420349 6.8742981 C6.99236 6.93016367 4.20600952 7.54928982 0.80766296 10.28088379 Z " fill="#F3F0E8" transform="translate(1158.1923370361328,1005.7191162109375)"/>
  <path d="M0 0 C3.0625 0.25 3.0625 0.25 6 1 C7.24602749 3.49205498 7.12827623 5.16026594 7.13307858 7.94959164 C7.13731962 9.00284191 7.14156067 10.05609218 7.14593023 11.14125913 C7.1455441 12.3076464 7.14515797 13.47403366 7.14476013 14.67576599 C7.14828698 15.90799159 7.15181382 17.14021718 7.15544754 18.40978295 C7.16430686 21.84203193 7.16870007 25.27423574 7.17129052 28.70649183 C7.17517812 32.40503894 7.18481693 36.10357127 7.19384766 39.80210876 C7.20880908 46.2201196 7.22034475 52.63812925 7.22979546 59.05615044 C7.24367888 68.3650071 7.26487241 77.67383667 7.28822399 86.98267389 C7.3261862 102.12345256 7.36112734 117.26423622 7.39282227 132.4050293 C7.395673 133.7654014 7.395673 133.7654014 7.39858133 135.15325577 C7.42531035 147.97231204 7.44920648 160.79137205 7.47196633 173.61043591 C7.47356363 174.50977087 7.47516094 175.40910583 7.47680664 176.33569336 C7.47840011 177.23392267 7.47999357 178.13215199 7.48163532 179.05760037 C7.50853625 194.11070878 7.54299928 209.16378902 7.58346039 224.21686703 C7.60806519 233.48196804 7.6264861 242.74703893 7.636616 252.01216728 C7.64408823 258.38894909 7.6587337 264.76569047 7.67868023 271.14244532 C7.68991364 274.80547637 7.69821615 278.46844278 7.69767189 282.13149261 C7.69751019 305.7333687 8.64227254 329.19172066 12.125 352.5625 C12.22649353 353.26138336 12.32798706 353.96026672 12.43255615 354.68032837 C14.81654479 371.03924301 17.95240768 387.26091966 21.1328125 403.48046875 C21.29105499 404.28897781 21.44929749 405.09748688 21.61233521 405.93049622 C22.52977686 410.61569574 22.52977686 410.61569574 23.45983887 415.29840088 C23.8930535 417.46476828 24.31829153 419.63257425 24.7421875 421.80078125 C24.98565918 423.02579346 25.22913086 424.25080566 25.47998047 425.51293945 C26.00923278 429.06191165 26.09233951 432.41739919 26 436 C23.67141296 433.67141296 23.55024398 432.67196346 22.95703125 429.49609375 C22.77430664 428.54710205 22.59158203 427.59811035 22.40332031 426.62036133 C22.20834961 425.57001709 22.01337891 424.51967285 21.8125 423.4375 C20.4341133 416.23827957 19.03492036 409.05188058 17.43359375 401.8984375 C13.4653223 384.10435286 10.20844473 366.22897445 7.1875 348.25 C6.99273071 347.10431549 6.79796143 345.95863098 6.59729004 344.77822876 C4.12991161 330.20829385 2.09619316 315.73617624 1 301 C0.91783989 299.9142078 0.83567978 298.8284156 0.75102997 297.70972061 C-1.35754005 268.6461496 -1.37657038 239.55943832 -1.46414307 210.43425331 C-1.47937921 205.40229548 -1.49837819 200.37036363 -1.51981354 195.3384285 C-1.52289536 194.61396357 -1.52597719 193.88949865 -1.52915241 193.14308024 C-1.53543057 191.6703759 -1.54171599 190.19767159 -1.54800859 188.72496732 C-1.60599506 175.05272723 -1.65263767 161.38046736 -1.69521323 147.7081718 C-1.73200204 135.98508676 -1.77915336 124.26207881 -1.83349609 112.5390625 C-1.89693748 98.85263584 -1.95386576 85.1662072 -2.0004847 71.47971213 C-2.0054636 70.02375321 -2.01045184 68.56779433 -2.01544952 67.11183548 C-2.01790508 66.39577546 -2.02036064 65.67971544 -2.02289061 64.94195663 C-2.04063816 59.90049678 -2.06309213 54.8590705 -2.08739471 49.8176384 C-2.11983363 43.06217649 -2.14174347 36.30676083 -2.15640068 29.55123329 C-2.16340697 27.06869221 -2.17386885 24.58615825 -2.18795204 22.10364723 C-2.20654483 18.72996566 -2.21290823 15.35648358 -2.21600342 11.98275757 C-2.22435581 10.98982016 -2.2327082 9.99688275 -2.2413137 8.97385633 C-2.2395816 8.07594236 -2.2378495 7.17802838 -2.23606491 6.25290489 C-2.2401345 5.08491861 -2.2401345 5.08491861 -2.2442863 3.89333665 C-2 2 -2 2 0 0 Z " fill="#F3F0E8" transform="translate(1058,602)"/>
  <path d="M0 0 C7.59 0 15.18 0 23 0 C23 37.29 23 74.58 23 113 C15.41 113 7.82 113 0 113 C0 75.71 0 38.42 0 0 Z " fill="#F3F0E8" transform="translate(1110,1450)"/>
  <path d="M0 0 C7.59 0 15.18 0 23 0 C23 37.29 23 74.58 23 113 C15.41 113 7.82 113 0 113 C0 75.71 0 38.42 0 0 Z " fill="#F3F0E8" transform="translate(867,1450)"/>
  <path d="M0 0 C5.52095269 5.04699619 8.20776814 11.98020516 8.5625 19.375 C8.48169134 26.3707215 5.13086983 32.02223459 0.625 37.1875 C-0.5815625 38.2084375 -0.5815625 38.2084375 -1.8125 39.25 C-2.451875 39.806875 -3.09125 40.36375 -3.75 40.9375 C-9.92225401 44.865298 -16.70091835 45.10983859 -23.8125 44.25 C-32.34417852 41.57339497 -37.26025222 36.58882123 -41.6875 29.0625 C-43.97894422 21.29705016 -43.88213622 13.56225992 -40.14453125 6.28515625 C-35.99507354 -0.05463104 -30.77152108 -4.3144939 -23.4375 -6.4375 C-14.06753678 -7.55297181 -7.49894908 -5.86456274 0 0 Z " fill="#F3F0E8" transform="translate(1016.8125,912.75)"/>
  <path d="M0 0 C3.62083244 2.58721477 5.98991219 5.78631773 8.23046875 9.59375 C8.60558594 10.19574219 8.98070312 10.79773438 9.3671875 11.41796875 C11.73689606 17.39049214 11.10144209 25.95632452 9.16796875 32.03125 C6.10782226 38.67817284 0.47370968 43.27410146 -6.2421875 45.9375 C-12.41225371 47.5396192 -18.42452159 47.2581694 -24.51953125 45.53125 C-30.80136238 41.78631221 -37.05116827 37.10994422 -39.30859375 29.86328125 C-40.80294597 22.50549616 -41.01061292 14.7802327 -37.33203125 8.09375 C-28.30537956 -4.88072808 -13.55014596 -7.41057267 0 0 Z " fill="#F3F0E8" transform="translate(1014.76953125,639.40625)"/>
  <path d="M0 0 C1.64965169 1.64965169 1.24949498 3.5476355 1.3125 5.8125 C1.27816182 10.61984552 1.27816182 10.61984552 -0.875 13.5625 C-4.31145982 15.88716399 -6.67960103 16.25607795 -10.8046875 16.65625 C-32.46570868 18.90492835 -53.80321485 22.42889961 -75.2421875 26.23046875 C-76.87800781 26.52050781 -76.87800781 26.52050781 -78.546875 26.81640625 C-79.62324219 27.00750977 -80.69960938 27.19861328 -81.80859375 27.39550781 C-92.19359955 29.22993717 -102.60340417 30.87466088 -113.03564453 32.41577148 C-118.89109767 33.29429813 -124.72475775 34.26218256 -130.5390625 35.3828125 C-131.65748535 35.59566895 -132.7759082 35.80852539 -133.92822266 36.02783203 C-138.5971644 37.50547676 -141.67935333 40.50458245 -145 44 C-145.16271111 41.77326829 -145.27871548 39.54309147 -145.375 37.3125 C-145.44460938 36.07113281 -145.51421875 34.82976562 -145.5859375 33.55078125 C-144.93866549 29.62831286 -143.97479144 28.51732799 -140.89520264 26.12464905 C-137.35394194 24.02319805 -133.54466038 23.49126455 -129.52734375 22.81640625 C-128.56780289 22.6394371 -127.60826202 22.46246796 -126.61964417 22.28013611 C-123.3951929 21.68994018 -120.16661713 21.12656052 -116.9375 20.5625 C-114.64680889 20.14763222 -112.35645228 19.7309139 -110.06640625 19.3125 C-104.95617113 18.38253301 -99.84397926 17.46418525 -94.72998047 16.55517578 C-80.60075697 14.0430749 -66.48044246 11.48135183 -52.35985088 8.92125416 C-47.13552542 7.97478771 -41.90997 7.03551124 -36.68328762 6.10215092 C-33.39044943 5.51332391 -30.0983735 4.92031203 -26.80644035 4.32644844 C-25.26291092 4.04899995 -23.7190474 3.77340289 -22.17483711 3.49976921 C-20.04729247 3.12254289 -17.92102196 2.73878795 -15.79492188 2.35351562 C-13.99951965 2.03235779 -13.99951965 2.03235779 -12.16784668 1.70471191 C-1.62862862 -0.63981839 -1.62862862 -0.63981839 0 0 Z " fill="#F3F0E8" transform="translate(875,421)"/>
  <path d="M0 0 C7.38238248 0.61356457 14.60502097 1.71471136 21.890625 3.0390625 C23.57958138 3.34144333 23.57958138 3.34144333 25.30265808 3.64993286 C28.95246939 4.30447461 32.60124477 4.96459883 36.25 5.625 C38.78649602 6.08129763 41.3230361 6.53735042 43.85961914 6.99316406 C59.56042528 9.81853772 75.2570095 12.66820901 90.94067383 15.58740234 C98.42328353 16.97941266 105.90937566 18.34301533 113.40625 19.65625 C115.68823998 20.05916683 117.97012538 20.46267099 120.25198364 20.86633301 C121.68411768 21.11774387 123.11678382 21.36614642 124.55001831 21.61120605 C138.67316684 24.02617084 138.67316684 24.02617084 144 27 C146.45391569 30.68087353 146.22802759 33.44355588 146.125 37.6875 C146.11597656 38.38939453 146.10695313 39.09128906 146.09765625 39.81445312 C146.07413704 41.54311525 146.03826713 43.27160145 146 45 C145.34 45 144.68 45 144 45 C143.29875 44.278125 142.5975 43.55625 141.875 42.8125 C131.96338536 32.67105082 118.07978441 31.67634126 104.6786499 29.86541748 C102.38272047 29.55509591 100.08800759 29.23685342 97.79345703 28.91650391 C94.67786562 28.48173066 91.56196578 28.04929429 88.44580078 27.61865234 C82.08408414 26.73658071 75.72890464 25.81169016 69.375 24.875 C68.36622803 24.72877197 67.35745605 24.58254395 66.31811523 24.43188477 C59.7705935 23.46650723 53.25588597 22.35004292 46.74200439 21.18234253 C41.3608575 20.22392859 35.97009872 19.34648821 30.5703125 18.5 C28.21393097 18.12561935 25.85769149 17.75035409 23.50146484 17.375 C21.89269417 17.12114015 20.28329222 16.87125442 18.67333984 16.625 C16.3037304 16.26124624 13.93702074 15.88211539 11.5703125 15.5 C10.49234909 15.34047852 10.49234909 15.34047852 9.39260864 15.17773438 C6.54898465 14.7069018 4.39906604 14.30195626 2.07470703 12.54321289 C0.68970254 10.55443203 0.23403593 8.80693395 -0.25 6.4375 C-0.42015625 5.65246094 -0.5903125 4.86742187 -0.765625 4.05859375 C-1 2 -1 2 0 0 Z " fill="#F3F0E8" transform="translate(1124,422)"/>
  <path d="M0 0 C5.74794137 4.19018025 9.62361089 8.75043361 13 15 C11.515 15.495 11.515 15.495 10 16 C7.94140625 14.7421875 7.94140625 14.7421875 5.5625 12.875 C-6.89245633 3.77888758 -20.99151588 0.38713889 -36.19921875 2.4296875 C-52.75947051 5.66582838 -65.48106934 15.23162513 -75.0546875 28.875 C-77.71711589 33.15199339 -80.03962089 37.59174844 -82.21142578 42.13720703 C-84.52976559 46.80434302 -84.52976559 46.80434302 -87.234375 47.9296875 C-87.81703125 47.95289063 -88.3996875 47.97609375 -89 48 C-89.42556127 31.1666874 -86.17296209 18.65126081 -74.16796875 5.99609375 C-68.24133363 0.53931799 -61.43798705 -3.89844556 -54 -7 C-53.31164062 -7.2990625 -52.62328125 -7.598125 -51.9140625 -7.90625 C-35.09224046 -14.10678509 -14.49409232 -9.70150321 0 0 Z " fill="#F3F0E8" transform="translate(604,229)"/>
  <path d="M0 0 C4.29378168 3.59028073 7.45855277 7.5592146 10.51171875 12.234375 C10.18171875 12.894375 9.85171875 13.554375 9.51171875 14.234375 C8.73570313 13.71488281 7.9596875 13.19539063 7.16015625 12.66015625 C-8.34223773 2.65204749 -24.04824353 -2.09334883 -42.55078125 1.359375 C-58.38190232 5.1079334 -68.6661695 14.78438611 -77.11328125 28.1796875 C-80.78543878 34.26726904 -83.69262902 40.70810076 -86.48828125 47.234375 C-87.14828125 47.234375 -87.80828125 47.234375 -88.48828125 47.234375 C-91.52754788 37.08714608 -89.56155296 26.56414871 -85.046875 17.265625 C-77.47259598 3.34722828 -66.91055961 -4.75951726 -52.12890625 -10.00390625 C-34.06436528 -15.21483153 -15.10767763 -10.72004755 0 0 Z " fill="#F3F0E8" transform="translate(1463.48828125,230.765625)"/>
  <path d="M0 0 C4.59557656 3.95433332 8.30767225 7.64987532 8.9609375 13.94921875 C9.19793246 21.06818264 8.63192687 25.96891366 3.6875 31.3125 C-2.47818653 36.1217355 -7.67696633 37.08399523 -15.3125 36.3125 C-21.33837312 34.74513757 -25.05591805 31.20822774 -28.24609375 25.94921875 C-30.64247056 20.02411124 -30.13839504 13.93593131 -28.25 7.9375 C-21.14609759 -1.68714197 -11.16406655 -5.68735466 0 0 Z " fill="#F3F0E8" transform="translate(1010.3125,1019.6875)"/>
  <path d="M0 0 C4.93034841 2.4327377 8.04140325 6.19102839 9.96875 11.31640625 C10.82662693 16.62169779 10.63857323 20.84279514 8.40625 25.75390625 C3.11659507 31.31482554 -0.49580631 32.57621836 -8.09375 32.81640625 C-13.52691651 32.63203581 -17.13375676 32.41903071 -21.03125 28.31640625 C-24.60666096 23.40587347 -25.68640669 18.67975672 -25.41796875 12.64453125 C-24.62642019 7.879249 -22.00845147 5.19588758 -18.53125 2.06640625 C-12.32596923 -2.27729029 -7.21513716 -2.42817116 0 0 Z " fill="#F3F0E8" transform="translate(1248.03125,467.68359375)"/>
  <path d="M0 0 C4.05948611 2.32549404 6.31871211 4.94616475 7.6875 9.4375 C8.74575538 16.19490154 7.73010221 21.87428595 3.6875 27.4375 C0.07235038 31.23199124 -3.21028099 33.2314001 -8.5 33.75 C-13.79395172 33.31606953 -17.99886318 31.67518409 -21.859375 27.94140625 C-25.45476686 23.7009588 -27.91849807 20.40980938 -27.75 14.69140625 C-26.582053 8.67439358 -22.39778562 3.84958138 -17.5 0.375 C-11.65263885 -2.83269526 -6.05426001 -2.58345047 0 0 Z " fill="#F3F0E8" transform="translate(768.3125,467.5625)"/>
  <path d="M0 0 C4.95 0 9.9 0 15 0 C15 15.84 15 31.68 15 48 C10.05 48 5.1 48 0 48 C0 32.16 0 16.32 0 0 Z " fill="#F3F0E8" transform="translate(1077,1490)"/>
  <path d="M0 0 C4.62 0 9.24 0 14 0 C14 15.51 14 31.02 14 47 C9.38 47 4.76 47 0 47 C0 31.49 0 15.98 0 0 Z " fill="#F3F0E8" transform="translate(908,1491)"/>
  <path d="M0 0 C5.94 0 11.88 0 18 0 C18 11.88 18 23.76 18 36 C12.06 36 6.12 36 0 36 C0 24.12 0 12.24 0 0 Z " fill="#F3F0E8" transform="translate(1148,1468)"/>
  <path d="M0 0 C5.94 0 11.88 0 18 0 C18 11.55 18 23.1 18 35 C12.06 35 6.12 35 0 35 C0 23.45 0 11.9 0 0 Z " fill="#F3F0E8" transform="translate(834,1512)"/>
  <path d="M0 0 C5.94 0 11.88 0 18 0 C18 11.55 18 23.1 18 35 C12.06 35 6.12 35 0 35 C0 23.45 0 11.9 0 0 Z " fill="#F3F0E8" transform="translate(834,1469)"/>
  <path d="M0 0 C5.94 0 11.88 0 18 0 C18 9.9 18 19.8 18 30 C12.06 30 6.12 30 0 30 C0 20.1 0 10.2 0 0 Z " fill="#F3F0E8" transform="translate(1148,1517)"/>
  <path d="M0 0 C-8.45784159 4.42212022 -16.5564486 8.56670784 -25.83984375 11.015625 C-28.15398569 11.78950268 -28.15398569 11.78950268 -28.91015625 13.92578125 C-29.18115383 16.24103112 -29.18115383 16.24103112 -27.5 18.9375 C-26 22 -26 22 -26.0625 24.75 C-27 27 -27 27 -28.6875 28.375 C-31.88933363 29.24036044 -33.8334947 28.98953291 -37 28 C-40.09536848 25.23045978 -40.91076034 23.62467765 -41.5 19.5 C-40.90683487 15.34784412 -39.86868448 14.0034549 -37 11 C-34.328125 9.59375 -34.328125 9.59375 -31.25 8.5 C-30.10917969 8.09136719 -28.96835937 7.68273437 -27.79296875 7.26171875 C-22.4256042 5.47628234 -17.04116376 3.75751138 -11.62890625 2.11328125 C-9.28591677 1.39449546 -6.95782657 0.62423385 -4.65234375 -0.20703125 C-2 -1 -2 -1 0 0 Z " fill="#F3F0E8" transform="translate(645,538)"/>
  <path d="M0 0 C6.80546758 0.84595067 13.10175876 2.63726463 19.64355469 4.64599609 C21.62272801 5.24930743 23.60775399 5.82976265 25.59375 6.41015625 C26.85445312 6.79558594 28.11515625 7.18101562 29.4140625 7.578125 C31.13036865 8.09487793 31.13036865 8.09487793 32.88134766 8.62207031 C36.4642463 10.20512025 38.48109851 12.0233282 41 15 C41.375 17.3515625 41.375 17.3515625 41 19.625 C40.896875 20.38039063 40.79375 21.13578125 40.6875 21.9140625 C39.87226588 24.38755692 39.09375127 25.4574904 37 27 C34.20118956 27.5154245 31.88240605 27.22876238 29 27 C25.74492169 23.74492169 26.70117887 19.50423787 26.63671875 15.06640625 C26.30674703 11.89290014 26.30674703 11.89290014 23.921875 10.24609375 C20.5234836 8.79677977 17.08868707 7.58984845 13.5625 6.5 C8.82231356 5.02612057 4.39579294 3.33717584 0 1 C0 0.67 0 0.34 0 0 Z " fill="#F3F0E8" transform="translate(1354,539)"/>
  <path d="M0 0 C3.65907504 0.68607657 5.35167676 1.98984314 8 4.5625 C9.44430855 7.45111709 9.37688506 9.35897701 9 12.5625 C7.00366611 15.43222996 5.52770117 17.21460765 2.02734375 18.01171875 C-1.3195592 18.19313966 -3.62896551 17.78512069 -6.5 16.0625 C-8.59158203 12.57652996 -8.8876276 9.46034294 -8 5.5625 C-5.55871269 2.11597674 -4.17033126 0.78193711 0 0 Z " fill="#F3F0E8" transform="translate(999,1146.4375)"/>
  <path d="M0 0 C0.94875 0.04125 1.8975 0.0825 2.875 0.125 C3.05951025 15.86987472 3.05951025 15.86987472 1.875 23.125 C0.21885343 23.50718767 -1.44957024 23.83895102 -3.125 24.125 C-6.76121841 20.48878159 -5.27934499 9.24692075 -5.35546875 4.375 C-4.96696748 0.58217402 -3.66508944 0.14660358 0 0 Z " fill="#F3F0E8" transform="translate(695.125,450.875)"/>
  <path d="M0 0 C2.5625 0.1875 2.5625 0.1875 4.5625 2.1875 C4.80541992 4.03515625 4.80541992 4.03515625 4.79296875 6.25 C4.79103516 7.04664063 4.78910156 7.84328125 4.78710938 8.6640625 C4.77486328 9.49679687 4.76261719 10.32953125 4.75 11.1875 C4.74935547 12.02023437 4.74871094 12.85296875 4.74804688 13.7109375 C4.70293257 19.90663485 4.70293257 19.90663485 3.5625 22.1875 C1.5825 21.8575 -0.3975 21.5275 -2.4375 21.1875 C-3.73271242 17.30186275 -3.58253464 13.60949731 -3.5625 9.5625 C-3.56636719 8.77359375 -3.57023437 7.9846875 -3.57421875 7.171875 C-3.56236678 0.27402821 -3.56236678 0.27402821 0 0 Z " fill="#F3F0E8" transform="translate(1304.4375,450.8125)"/>
  <path d="M0 0 C0.66 0.33 1.32 0.66 2 1 C1.16855469 1.90492188 1.16855469 1.90492188 0.3203125 2.828125 C-0.40414063 3.62734375 -1.12859375 4.4265625 -1.875 5.25 C-2.59429688 6.03890625 -3.31359375 6.8278125 -4.0546875 7.640625 C-8.37191328 12.87677836 -8.41461594 17.04471049 -8.33203125 23.7265625 C-7.86612972 28.31980346 -6.39346953 31.08341349 -4 35 C-3.67 35.99 -3.34 36.98 -3 38 C-1.30230766 39.10168984 -1.30230766 39.10168984 1 40 C1.60070313 40.26039063 2.20140625 40.52078125 2.8203125 40.7890625 C4.5429003 41.53528474 6.27109245 42.26853911 8 43 C5.56518852 43.8758711 4.34094331 44.11344114 1.8515625 43.28515625 C-5.00208952 39.52165961 -9.06049792 35.14348171 -12.375 28.0625 C-13.85652023 20.80305085 -13.56528743 15.58147996 -9.64453125 9.15234375 C-6.89691596 5.55629618 -3.56933961 2.75450278 0 0 Z " fill="#F3F0E8" transform="translate(1224,466)"/>
  <path d="M0 0 C3.19469864 2.90427149 4.80300893 5.39658432 5.3359375 9.734375 C5.4541657 18.86159235 3.81747819 24.22396424 -2.4375 30.875 C-5.93934968 34.36872474 -9.14533607 35.88364718 -14.11328125 36.1953125 C-15.69689453 36.16050781 -15.69689453 36.16050781 -17.3125 36.125 C-18.38113281 36.10695313 -19.44976563 36.08890625 -20.55078125 36.0703125 C-21.76314453 36.03550781 -21.76314453 36.03550781 -23 36 C-23 35.67 -23 35.34 -23 35 C-22.3709375 34.90203125 -21.741875 34.8040625 -21.09375 34.703125 C-11.18315124 33.01114957 -11.18315124 33.01114957 -3.4296875 27.06640625 C0.04688335 21.65288879 1.13860553 17.5455344 1.125 11.0625 C1.12757813 9.83660156 1.13015625 8.61070312 1.1328125 7.34765625 C1.02667535 4.67237569 0.79917654 2.53072572 0 0 Z " fill="#F3F0E8" transform="translate(783,475)"/>
  <path d="M0 0 C1.65 0 3.3 0 5 0 C5 4.29 5 8.58 5 13 C3.35 13.33 1.7 13.66 0 14 C-1 13 -1 13 -1.1328125 10.3125 C-1.13023437 9.219375 -1.12765625 8.12625 -1.125 7 C-1.12757813 5.906875 -1.13015625 4.81375 -1.1328125 3.6875 C-1 1 -1 1 0 0 Z " fill="#F3F0E8" transform="translate(712,455)"/>
  <path d="M0 0 C1.65 0.33 3.3 0.66 5 1 C5 4.96 5 8.92 5 13 C3.35 13.33 1.7 13.66 0 14 C-1 13 -1 13 -1.1328125 10.3125 C-1.13023438 9.219375 -1.12765625 8.12625 -1.125 7 C-1.12757812 5.906875 -1.13015625 4.81375 -1.1328125 3.6875 C-1 1 -1 1 0 0 Z " fill="#F3F0E8" transform="translate(1284,455)"/>
  <path d="M0 0 C0.33 0 0.66 0 1 0 C3.29612756 13.6332574 3.29612756 13.6332574 3 20 C0.14072378 17.14072378 -0.04503975 13.84035489 -0.75 10 C-0.97623047 8.89398437 -0.97623047 8.89398437 -1.20703125 7.765625 C-1.56538506 5.85904359 -1.79215514 3.92880031 -2 2 C-1.34 1.34 -0.68 0.68 0 0 Z " fill="#F3F0E8" transform="translate(1081,1018)"/>
  <path d="M0 0 C0.66 0.33 1.32 0.66 2 1 C0.90653119 2.34212062 -0.2001575 3.67347975 -1.3125 5 C-2.23482422 6.11375 -2.23482422 6.11375 -3.17578125 7.25 C-5 9 -5 9 -8 9 C-6.4169423 4.7257442 -3.49431596 2.73468206 0 0 Z " fill="#F3F0E8" transform="translate(1224,466)"/>
</svg>