<?xml version="1.0" encoding="UTF-8"?>
<svg version="1.1" xmlns="http://www.w3.org/2000/svg" width="2000" height="2000" viewBox="700 200 700 500">
  <path d="M0 0 C19.42092791 -0.63485946 36.50799966 6.9042994 50.9375 19.44140625 C64.42739165 32.10999551 72.66332588 49.56776144 73.49291992 68.10913086 C73.46438516 72.82255456 73.34873347 77.52568943 73.17944336 82.23583984 C73.11290136 84.25308811 73.07176689 86.27112375 73.03125 88.2890625 C72.97118774 90.05636719 72.97118774 90.05636719 72.90991211 91.859375 C73.4102761 95.92719899 74.76692638 97.99348959 77.31640625 101.1640625 C79.66795205 102.83543312 81.8680128 104.22587031 84.37890625 105.6015625 C85.47561646 106.22490479 85.47561646 106.22490479 86.59448242 106.86083984 C89.15956177 108.31172511 91.73699759 109.738816 94.31640625 111.1640625 C96.36346074 112.3030629 98.4103262 113.44240306 100.45703125 114.58203125 C103.83722197 116.46161948 107.21871658 118.33872923 110.60327148 120.21044922 C119.51563114 125.1402079 128.36857868 130.16804919 137.20236206 135.23703003 C144.46270624 139.40255752 151.74081601 143.53285495 159.05419922 147.60473633 C168.17821882 152.68507564 177.28208575 157.80062984 186.31640625 163.0390625 C187.19409668 163.53817139 188.07178711 164.03728027 188.97607422 164.55151367 C196.58291638 169.00438892 205.08003041 174.34742183 208.70214844 182.74023438 C210.12248396 188.34480157 209.918578 194.16704955 209.94140625 199.9140625 C209.96691217 202.51311617 210.00040858 205.11210716 210.04296875 207.7109375 C210.04893066 208.85401367 210.05489258 209.99708984 210.06103516 211.17480469 C210.31259615 214.1194632 210.93559272 215.61980277 212.31640625 218.1640625 C220.27322975 218.41538712 227.52468687 217.85166464 235.29296875 216.15234375 C236.29436386 215.94373718 237.29575897 215.73513062 238.32749939 215.52020264 C241.53454554 214.84991274 244.73788466 214.16347927 247.94140625 213.4765625 C251.2488282 212.7801619 254.55703959 212.08760252 257.86531067 211.39524841 C260.03242647 210.94139067 262.19924975 210.48613379 264.36576843 210.0294342 C273.50349451 208.10707019 282.66144923 206.32942945 291.85595703 204.69848633 C301.45304304 203.09336345 301.45304304 203.09336345 309.49609375 198.0390625 C311.9547595 194.15584793 314.2073674 190.17960616 316.44140625 186.1640625 C333.32846015 156.54824361 359.00214724 135.06955117 392.04931641 125.74560547 C398.39373543 124.11816566 404.83937744 123.09702313 411.31640625 122.1640625 C412.41082031 121.97972656 413.50523437 121.79539062 414.6328125 121.60546875 C446.27927118 117.8132632 477.88955301 125.8327189 503.69140625 144.5390625 C505.5884452 146.05352753 507.46325068 147.5962055 509.31640625 149.1640625 C509.8283252 149.58848633 510.34024414 150.01291016 510.86767578 150.45019531 C524.20749694 161.61596974 534.26647287 175.27419552 542.4140625 190.578125 C542.73906738 191.17012695 543.06407227 191.76212891 543.39892578 192.37207031 C544.31640625 194.1640625 544.31640625 194.1640625 545.02685547 196.07324219 C545.91831963 198.18859967 546.72156341 199.50040932 548.31640625 201.1640625 C550.68088271 202.10742518 550.68088271 202.10742518 553.47607422 202.67407227 C554.5553569 202.92008179 555.63463959 203.16609131 556.74662781 203.41955566 C563.23818427 204.77342349 569.74550746 206.02409828 576.265625 207.23046875 C577.77397799 207.51249236 579.28226224 207.79488391 580.79048157 208.07762146 C584.72693627 208.81476841 588.66413288 209.54786569 592.6015625 210.27978516 C598.91155546 211.45328994 605.2205019 212.63239381 611.52921486 213.81275749 C613.71399327 214.2208251 615.89916324 214.62673936 618.08439636 215.03236389 C619.43999023 215.28523108 620.7955664 215.53819315 622.15112305 215.79125977 C623.40251068 216.02426788 624.65389832 216.257276 625.94320679 216.49734497 C628.77472832 217.05699911 631.55345734 217.70459147 634.35083008 218.40991211 C638.29549293 219.33333287 641.36828555 219.00408818 645.31640625 218.1640625 C645.33098877 217.29193115 645.34557129 216.4197998 645.3605957 215.52124023 C645.42197997 212.25746254 645.49619013 208.99448293 645.57885742 205.73120117 C645.61192619 204.3240847 645.64001329 202.91684134 645.6628418 201.50952148 C645.69672424 199.47585426 645.74904843 197.44333115 645.8046875 195.41015625 C645.83087158 194.18997803 645.85705566 192.9697998 645.8840332 191.71264648 C646.82801689 183.96515752 650.6717904 177.20530549 656.65234375 172.21484375 C665.81322722 165.57136124 675.82095999 160.301484 685.7109375 154.83984375 C691.96998651 151.37624056 698.15086535 147.79088122 704.31640625 144.1640625 C712.43016709 139.39904906 720.59454849 134.7399939 728.81640625 130.1640625 C740.15675602 123.84930809 751.38008908 117.3499953 762.56738281 110.76855469 C765.20964088 109.22637707 767.86500805 107.71031926 770.52734375 106.203125 C771.32076172 105.74969727 772.11417969 105.29626953 772.93164062 104.82910156 C774.38908872 103.99708388 775.85104888 103.17289724 777.31835938 102.35839844 C780.84794549 100.32897583 782.97397355 99.03747691 784.31640625 95.1640625 C784.42621003 92.63857556 784.43155631 90.23205987 784.3359375 87.71484375 C784.30119235 86.21959884 784.26804817 84.72431605 784.23632812 83.22900391 C784.21755615 82.45179993 784.19878418 81.67459595 784.17944336 80.87384033 C783.68982439 57.64827969 787.23521214 40.04406531 803.9921875 22.43359375 C810.16455961 16.40645392 816.5358711 11.78983827 824.19140625 7.8515625 C824.81474854 7.52591309 825.43809082 7.20026367 826.08032227 6.86474609 C836.13867126 1.93491173 846.46991287 0.60203093 857.56640625 0.6640625 C858.7479126 0.66905762 859.92941895 0.67405273 861.14672852 0.67919922 C870.74152369 0.86979382 878.51955236 2.3065094 887.31640625 6.1640625 C888.92128906 6.83308594 888.92128906 6.83308594 890.55859375 7.515625 C908.47911621 15.67789859 920.76505212 30.76135 927.69140625 48.9140625 C934.37946674 67.79064443 932.91248094 88.45786208 924.52905273 106.44042969 C921.18477132 113.28668904 917.44079904 119.48215475 912.31640625 125.1640625 C911.82140625 125.75058594 911.32640625 126.33710938 910.81640625 126.94140625 C900.0087859 138.85680769 881.72442281 148.10288646 865.74682617 149.36743164 C844.73220176 150.13562542 826.40130236 146.68263914 810.31640625 132.1640625 C805.41582551 127.5585 800.83783652 122.91553553 796.99609375 117.37890625 C794.19069052 115.34988205 791.68609312 115.90030658 788.31640625 116.1640625 C784.9490958 117.59789422 784.9490958 117.59789422 781.65234375 119.72265625 C781.03085953 120.09817123 780.40937531 120.47368622 779.76905823 120.86058044 C777.73444747 122.09384434 775.71339932 123.34773984 773.69140625 124.6015625 C772.26481011 125.47000021 770.83713992 126.33667582 769.40844727 127.20166016 C766.47436695 128.97919625 763.54426238 130.76302233 760.61669922 132.55126953 C754.20728908 136.45674851 747.73327479 140.25120478 741.25390625 144.0390625 C740.65475403 144.39005005 740.05560181 144.7410376 739.43829346 145.10266113 C731.51422201 149.74441918 723.56189976 154.33381459 715.56640625 158.8515625 C714.65544189 159.36662354 713.74447754 159.88168457 712.8059082 160.41235352 C707.77536861 163.24611599 702.72386207 166.03709338 697.65234375 168.796875 C696.53311523 169.41087158 695.41388672 170.02486816 694.26074219 170.6574707 C692.12102548 171.83009715 689.97617799 172.99343301 687.82519531 174.14526367 C679.48313509 178.72983064 670.41995725 184.17796192 666.8984375 193.48828125 C664.9581704 202.40830113 665.38908752 213.46037688 668.31640625 222.1640625 C670.46452366 224.78030738 672.02903111 225.58577632 675.34375 226.12109375 C676.13048096 226.26071533 676.91721191 226.40033691 677.7277832 226.54418945 C678.56140381 226.68687256 679.39502441 226.82955566 680.25390625 226.9765625 C690.71378189 228.98864747 700.5187499 231.7035155 707.23046875 240.55078125 C708.26356241 242.08555708 709.29016301 243.62469764 710.31640625 245.1640625 C716.24178955 246.24140492 718.95466529 244.99969572 723.87890625 241.6015625 C728.89913422 238.19942454 728.89913422 238.19942454 733.00390625 237.8515625 C736.74866245 239.33533383 739.51236974 241.25152971 742.6171875 243.7890625 C745.4177795 246.05528867 747.16111463 246.28982504 750.69256592 246.29536438 C751.61220123 246.29937256 752.53183655 246.30338074 753.4793396 246.30751038 C754.49130402 246.30698166 755.50326843 246.30645294 756.54589844 246.3059082 C758.14121902 246.31111984 758.14121902 246.31111984 759.76876831 246.31643677 C762.08451563 246.32380273 764.40027005 246.32914362 766.71602631 246.33272743 C770.38083156 246.33987799 774.04550175 246.35553432 777.71026611 246.37406921 C788.13234599 246.42660334 798.55435308 246.47451984 808.9765625 246.48999023" fill="#161a1b" transform="translate(700,200) scale(0.6)"/>
</svg>
