<?xml version="1.0" encoding="UTF-8" standalone="no"?>
<svg xmlns="http://www.w3.org/2000/svg" version="1.1" viewBox="0 0 500 500">
<path fill="#111315" d="
 M 250.75 106.39
  Q 250.26 107.23 249.39 107.61
  A 1.00 0.99 84.8 0 0 248.80 108.32
  Q 248.66 108.90 248.97 109.03
  A 1.16 1.16 0.0 0 1 248.86 111.20
  Q 244.44 112.64 239.70 111.23
  Q 238.83 110.19 239.26 108.79
  A 0.65 0.63 31.7 0 0 239.10 108.14
  Q 238.56 107.59 237.52 107.99
  Q 239.34 104.08 238.70 99.31
  A 3.01 2.84 28.6 0 0 238.37 98.30
  L 229.35 81.37
  A 0.91 0.75 -84.3 0 0 229.23 81.19
  C 227.79 79.41 224.88 76.76 224.09 74.00
  A 1.17 1.17 0.0 0 0 222.35 73.32
  Q 217.25 76.45 211.25 76.08
  C 206.49 75.79 205.14 68.31 205.41 64.71
  C 205.70 60.89 205.18 56.61 205.92 53.00
  C 206.77 48.88 211.84 34.65 217.84 36.16
  Q 220.04 36.71 220.87 38.19
  Q 224.31 44.29 226.14 51.33
  Q 226.52 52.77 226.84 53.66
  A 2.72 0.18 68.8 0 1 227.46 55.64
  L 228.72 68.98
  A 2.20 2.19 11.7 0 0 229.86 70.70
  Q 232.40 72.07 232.63 74.25
  Q 232.91 76.83 233.21 78.77
  A 4.73 4.48 28.8 0 0 233.66 80.17
  L 241.93 96.57
  A 3.51 3.36 8.8 0 0 242.71 97.59
  Q 244.48 99.19 246.94 104.55
  Q 247.79 106.39 250.75 106.39
  Z"
/>
<path fill="#47464c" d="
 M 273.64 43.14
  L 272.63 42.59
  Q 273.13 41.39 272.43 40.05
  A 1.21 1.00 -89.0 0 0 272.15 39.70
  Q 271.63 39.25 271.63 38.75
  A 1.36 1.17 -61.4 0 1 273.94 37.88
  Q 274.34 38.76 274.51 39.99
  A 1.43 1.41 -35.2 0 1 274.35 40.88
  Q 273.76 41.95 273.64 43.14
  Z"
/>
<path fill="#36363c" d="
 M 272.63 42.59
  L 273.64 43.14
  L 269.63 47.05
  Q 268.97 47.59 268.51 47.28
  C 268.27 46.95 267.90 46.72 267.47 46.70
  C 262.35 46.53 262.07 41.22 263.93 37.81
  A 0.22 0.22 0.0 0 1 264.34 37.88
  L 264.92 41.69
  A 0.78 0.78 0.0 0 0 265.95 42.31
  Q 269.11 41.19 272.63 42.59
  Z
 M 270.7568 43.8274
  A 1.72 0.74 -7.1 0 0 268.9585 43.3057
  A 1.72 0.74 -7.1 0 0 267.3432 44.2526
  A 1.72 0.74 -7.1 0 0 269.1415 44.7743
  A 1.72 0.74 -7.1 0 0 270.7568 43.8274
  Z"
/>
<path fill="#575863" d="
 M 346.26 40.54
  Q 346.44 40.55 346.60 40.64
  Q 346.75 40.73 346.80 40.91
  C 347.42 43.44 348.43 45.88 346.89 47.82
  A 1.84 1.79 -79.5 0 1 346.07 48.40
  Q 344.27 49.02 342.95 48.52
  Q 341.09 47.89 339.66 48.29
  Q 336.45 44.19 339.11 39.55
  A 0.55 0.55 0.0 0 1 340.14 39.87
  Q 340.08 40.50 340.54 41.17
  A 0.62 0.62 0.0 0 0 341.48 41.27
  Q 342.66 40.15 343.28 38.44
  A 0.28 0.28 0.0 0 1 343.59 38.26
  L 343.87 38.31
  A 0.45 0.45 0.0 0 1 344.20 38.93
  Q 343.39 40.80 344.79 42.21
  A 0.48 0.48 0.0 0 0 345.61 41.93
  Q 345.70 41.15 346.26 40.54
  Z"
/>
<ellipse fill="#9aa2b1" cx="0.00" cy="0.00" transform="translate(269.05,44.04) rotate(-7.1)" rx="1.72" ry="0.74
"/>
</svg>
